/* XPM */
static char * box_xpm[] = {
"64 64 8 1",
" 	c #72751B",
".	c #3B1725",
"+	c #BB7547",
"@	c #7F8124",
"#	c #DBA463",
"$	c #787B21",
"%	c #422433",
"&	c #71413B",
"                            ........                            ",
"                            ........                            ",
"                        ....++++++++....                        ",
"           @@           ....++++++++....                        ",
"           @@       ....++++########++++....                    ",
"             @@@@   ....++++########++++....                    ",
"             @@@....++++########++++####++++....                ",
"             $$$....++++########++++####++++....                ",
"            ....++++########++++############++++....            ",
"            ....++++########++++############++++....            ",
"        ....++++########++++############++++####++++....        ",
"        ....++++########++++############++++####++++....        ",
"    ....++++########++++############++++############++++....    ",
"    ....++++########++++############++++############++++....    ",
"....++++########++++############++++############++++####++++....",
"....++++########++++############++++############++++####++++....",
"....++++####++++############++++############++++########++++....",
"....++++####++++############++++############++++########++++....",
"..%%....++++############++++############++++########++++....&&..",
"..%%....++++############++++############++++########++++....&&..",
"..%%&&&&....++++####++++############++++########++++....++++&&..",
"..%%&&&&....++++####++++############++++########++++....++++&&..",
"..%%&&&&&&&&....++++############++++########++++....++++++++&&..",
"..%%&&&&&&&&....++++############++++########++++....++++++++&&..",
"..%%%%%%&&&&&&&&....++++####++++########++++....++++++++&&&&&&..",
"..%%%%%%&&&&&&&&....++++####++++########++++....++++++++&&&&&&..",
"..%%&&&&%%%%&&&&&&&&....++++########++++....++++++++&&&&++++&&..",
"..%%&&&&%%%%&&&&&&&&....++++########++++....++++++++&&&&++++&&..",
"..%%&&&&&&&&%%%%&&&&&&&&....++++++++....++++++++&&&&++++++++&&..",
"..%%&&&&&&&&%%%%&&&&&&&&....++++++++....++++++++&&&&++++++++&&..",
"..%%%%%%&&&&&&&&%%%%&&&&&&&&........++++++++&&&&++++++++&&&&&&..",
"..%%%%%%&&&&&&&&%%%%&&&&&&&&........++++++++&&&&++++++++&&&&&&..",
"..%%&&&&%%%%&&&&&&&&%%%%&&&&%%....&&++++&&&&++++++++&&&&++++&&..",
"..%%&&&&%%%%&&&&&&&&%%%%&&&&%%....&&++++&&&&++++++++&&&&++++&&..",
"..%%&&&&&&&&%%%%&&&&&&&&%%%%%%....&&&&&&++++++++&&&&++++++++&&..",
"..%%&&&&&&&&%%%%&&&&&&&&%%%%%%....&&&&&&++++++++&&&&++++++++&&..",
"..%%%%%%&&&&&&&&%%%%&&&&&&&&%%....&&++++++++&&&&++++++++&&&&&&..",
"..%%%%%%&&&&&&&&%%%%&&&&&&&&%%....&&++++++++&&&&++++++++&&&&&&..",
"..%%&&&&%%%%&&&&&&&&%%%%&&&&%%....&&++++&&&&++++++++&&&&++++&&..",
"..%%&&&&%%%%&&&&&&&&%%%%&&&&%%....&&++++&&&&++++++++&&&&++++&&..",
"..%%&&&&&&&&%%%%&&&&&&&&%%%%%%....&&&&&&++++++++&&&&++++++++&&..",
"..%%&&&&&&&&%%%%&&&&&&&&%%%%%%....&&&&&&++++++++&&&&++++++++&&..",
"..%%%%%%&&&&&&&&%%%%&&&&&&&&%%....&&++++++++&&&&++++++++&&&&&&..",
"..%%%%%%&&&&&&&&%%%%&&&&&&&&%%....&&++++++++&&&&++++++++&&&&&&..",
"..%%&&&&%%%%&&&&&&&&%%%%&&&&%%....&&++++&&&&++++++++&&&&++++&&..",
"..%%&&&&%%%%&&&&&&&&%%%%&&&&%%....&&++++&&&&++++++++&&&&++++&&..",
"..%%&&&&&&&&%%%%&&&&&&&&%%%%%%....&&&&&&++++++++&&&&++++++++&&..",
"..%%&&&&&&&&%%%%&&&&&&&&%%%%%%....&&&&&&++++++++&&&&++++++++&&..",
"....%%%%&&&&&&&&%%%%&&&&&&&&%%....&&++++++++&&&&++++++++&&&&....",
"....%%%%&&&&&&&&%%%%&&&&&&&&%%....&&++++++++&&&&++++++++&&&&....",
"    ....%%%%&&&&&&&&%%%%&&&&%%....&&++++&&&&++++++++&&&&....    ",
"    ....%%%%&&&&&&&&%%%%&&&&%%....&&++++&&&&++++++++&&&&....    ",
"        ....%%%%&&&&&&&&%%%%%%....&&&&&&++++++++&&&&....        ",
"        ....%%%%&&&&&&&&%%%%%%....&&&&&&++++++++&&&&....        ",
"            ....%%%%&&&&&&&&%%....&&++++++++&&&&....            ",
"            ....%%%%&&&&&&&&%%....&&++++++++&&&&....            ",
"                ....%%%%&&&&%%....&&++++&&&&....                ",
"                ....%%%%&&&&%%....&&++++&&&&....                ",
"                    ....%%%%%%....&&&&&&....                    ",
"                    ....%%%%%%....&&&&&&....                    ",
"                        ....%%....&&....                        ",
"                        ....%%....&&....                        ",
"                            ........                            ",
"                            ........                            "};
