/* XPM */
static char * fence_corner3_xpm[] = {
"64 64 12 1",
" 	c #72751B",
".	c #5E130F",
"+	c #AB6A1B",
"@	c #AB6A1A",
"#	c #7F8124",
"$	c #914517",
"%	c #787B21",
"&	c #686F16",
"*	c #782913",
"=	c #782912",
"-	c #C4961F",
";	c #914516",
"                              ....+++++++...                    ",
"                              ....+++++++...                    ",
"                              ....@@@++++...                    ",
"           ##                 ....@@@++++...                    ",
"           ##                 ....+++++++...                    ",
"             ####             ....+++++++...                    ",
"             ####             ....$$$$$$$...                    ",
"             %%%%%%           ....$$$$$$$...                    ",
"             %%%%%%           ....$$$$$$$...                    ",
"             %%%%%%        ....................                 ",
"           &&%%%%%%        ....................                 ",
"           &&%%%%%%     ...++++++++++++++++++++....             ",
"         ##%%&&&&&&     ...++++++++++++++++++++....             ",
"         ##%%&&&&&& ....++++++**************+++++++...          ",
"         %%%%       ....++++++**************+++++++...          ",
"         %%%%    ...+++++++***++++++++++++++***+++++++...       ",
"         %%%%    ...+++++++***++++++++++++++***+++++++...       ",
"         &&&&    ...++++***++++++++++++++++++++****+++...       ",
"         &&&&    ...++++***++++++++++++++++++++****+++...       ",
"                 ...++++***++++++++++++++++++++****+++...       ",
"                 ...++++***+++++++***====+++@@@****+++...       ",
"                 ...++++***+++++++***====+++@@@****+++...       ",
"....***.............++++***++++++++++++++***+++****+++...       ",
"....***.............++++***++++++++++++++***+++****+++...       ",
"++++...++++++++++...+++++++***+++++++++++***++++++++++...       ",
"++++...++++++++++...+++++++***+++++++++++***++++++++++...       ",
"++++...++++++++++...----++++++====***====++++++++++---...       ",
"++++...++++++++++...----++++++====***====++++++++++---...       ",
"----$$$----------...$$$$---++++++++++++++++++++----***...       ",
"----$$$----------...$$$$---++++++++++++++++++++----***...       ",
"----$$$----------...$$$$---++++++++++++++++++++----***...       ",
"$$$$...$$$$$$$$$$...$$$$$$$--------------------*******...       ",
"$$$$...$$$$$$$$$$...$$$$$$$--------------------*******...       ",
"$$$$...$$$$$$$$$$...$$$$$$$++++++++++$$$$$$$$$$*******...       ",
"$$$$...$$$$$$$$$$...$$$$$$$++++++++++$$$$$$$$$$*******...       ",
"$$$$...$$$$$$$$$$...$$$$+++$$$++++$$$$$$$$$$**********...    %% ",
"$$$$...$$$$$$$$$$...$$$$+++$$$++++$$$$$$$$$$**********...    %% ",
"$$$$...$$$$$$$$$$...$$$$$$$++++++++++$$$$$$$$$$====***...    %%%",
"$$$$...$$$$$$$$$$...$$$$$$$++++++++++$$$$$$$$$$====***...    %%%",
"$$$$...$$$$$$$$$$...$$$$+++$$$++++$$$$$$$$$$**********...    &&%",
"$$$$...$$$$$$$$$$...$$$$+++$$$++++$$$$$$$$$$**********...    &&%",
"$$$$...$$$$$$$$$$...$$$$+++$$$++++$$$$$$$$$$**********...    &&%",
"$$$$...$$$$$$$$$$...$$$$$$$++++++++++$$$$$$$$$$*******...      &",
"$$$$...$$$$$$$$$$...$$$$$$$++++++++++$$$$$$$$$$*******...      &",
"$$$$...$$$$$$$$$$...$$$$++++++++++$$$$$$$$$$**********...       ",
"$$$$...$$$$$$$$$$...$$$$++++++++++$$$$$$$$$$**********...       ",
"$$$$...$$$$$$$$$$...$$$$$$$++++++++++$$$$$$$$$$*******...       ",
"$$$$...$$$$$$$$$$...$$$$$$$++++++++++$$$$$$$$$$*******...       ",
"$$$$...$$$$$$$$$$...$$$$+++;;;++++$$$$$$$$$$**********...       ",
"$$$$...$$$$$$$$$$...$$$$+++;;;++++$$$$$$$$$$**********...       ",
"$$$$...$$$$$$$$$$...$$$$+++;;;++++$$$$$$$$$$**********...       ",
"$$$$...$$$$$$$$$$...$$$$$$$++++++++++$$$$$$$$$$*******...       ",
"$$$$...$$$$$$$$$$...$$$$$$$++++++++++$$$$$$$$$$*******...       ",
"$$$$...$$$$$$$$$$...;;;;+++$$$@@@@$$$$$$$$$$**********...       ",
"$$$$...$$$$$$$$$$...;;;;+++$$$@@@@$$$$$$$$$$**********...       ",
"....................$$$$$$$++++++++++$$$$$$$$$$*******...       ",
"....................$$$$$$$++++++++++$$$$$$$$$$*******...       ",
"                    ....++++++++++$$$$$$$$$$*******...          ",
"                    ....++++++++++$$$$$$$$$$*******...          ",
"                        ...++++++++++$$$$$$$$$$....             ",
"                        ...++++++++++$$$$$$$$$$....             ",
"                        ...++++++++++$$$$$$$$$$....             ",
"                           ....................                 ",
"                           ....................                 "};
