/* XPM */
static char * fence_angle_xpm[] = {
"64 64 13 1",
" 	c #72751B",
".	c #5E130F",
"+	c #7F8124",
"@	c #AB6A1B",
"#	c #782913",
"$	c #787B21",
"%	c #AB6A1A",
"&	c #686F16",
"*	c #C4961E",
"=	c #C4961F",
"-	c #5E130E",
";	c #914517",
">	c #914516",
"                   ................                             ",
"                   ................                             ",
"                   ................                             ",
"           ++   ...@@@@@@@@@@@@@@@@...                          ",
"           ++   ...@@@@@@@@@@@@@@@@...                          ",
"             +..@@@@@@##########@@@@@@..                        ",
"             +..@@@@@@##########@@@@@@..                        ",
"             $..@@@@@@##########@@@@@@..                        ",
"           ...@@@@@###@@@@@@@@@@###@@@@@...                     ",
"           ...@@@@@###@@@@@@@@@@###@@@@@...                     ",
"           ...@@@@@###@@@@@@@@@@###@@@@@...                     ",
"           ...@@###@@@%%@@@@@@@@@@@###@@...                     ",
"         ++...@@###@@@%%@@@@@@@@@@@###@@...                     ",
"         ++...%%###@@@@@######@@@@@###@@...                     ",
"         $$...%%###@@@@@######@@@@@###@@...                     ",
"         $$...%%###@@@@@######@@@@@###@@...                     ",
"         $$...@@###@@@##@@@@@@@@@@@###@@...........###..........",
"         &&...@@###@@@##@@@@@@@@@@@###@@...........###..........",
"         &&...@@@@@@@@##@@@@@@@@###@@@@@...@@@%%@@@...@@@@@@@@@@",
"           ...@@@@@@@@##@@@@@@@@###@@@@@...@@@%%@@@...@@@@@@@@@@",
"           ...@@@@@@@@##@@@@@@@@###@@@@@...@@@%%@@@...@@@@@@@@@@",
"           ...**@@@@@@@@########@@@@@@==...@@@@@@@@...@@@@@@@@@@",
"           ...**@@@@@@@@########@@@@@@==...@@@@@@@@...@@@@@@@@@@",
"           ---##===@@@@@@@@@@@@@@@@===;;...========;;;==========",
"           ---##===@@@@@@@@@@@@@@@@===;;...========;;;==========",
"           ---##===@@@@@@@@@@@@@@@@===;;...========;;;==========",
"           ...#####================;;;;;...;;;;;;;;...;;;;;;;;;;",
"           ...#####================;;;;;...;;;;;;;;...;;;;;;;;;;",
"           ...#####;;;..@@@@@@..@@@;;;;;...;;;;;;;;...;;;;;;;;;;",
"           ...#####;;;..@@@@@@..@@@;;;;;...;;;;;;;;...;;;;;;;;;;",
"           ...#####;;;..@@@@@@..@@@;;;;;...;;;;;;;;...;;;;;;;;;;",
"           ...########..@@@@@@..>>>@@@;;---;;;;;;;;...;;;;;;;;;;",
"           ...########..@@@@@@..>>>@@@;;---;;;;;;;;...;;;;;;;;;;",
"           ...#####;;;..@@@@@@..@@@;;;;;...;;;;;;;;...;;;;;;;;;;",
"           ...#####;;;..@@@@@@..@@@;;;;;...;;;;;;;;...;;;;;;;;;;",
"           ...#####;;;..@@@@@@..@@@;;;;;...;;;;;;;;...;;;;;;;;;;",
"           ...########..@@@@@@..;;;@@@;;...>>>;;>>>...;;;;;>>>;;",
"           ...########..@@@@@@..;;;@@@;;...>>>;;>>>...;;;;;>>>;;",
"           ...########..@@@@@@..;;;@@@;;...>>>;;>>>...;;;;;>>>;;",
"         $$...#####;;;..;;;;;;..@@@;;;;;...;;;;;;;;...;;;;;;;;;;",
"         $$...#####;;;..;;;;;;..@@@;;;;;...;;;;;;;;...;;;;;;;;;;",
"         $$...########..@@@@@@..@@@@@@;;...;;;;;;;;...;;;;;;;;;;",
"           ...########..@@@@@@..@@@@@@;;...;;;;;;;;...;;;;;;;;;;",
"           ...########..@@@@@@..@@@@@@;;...;;;;;;;;...;;;;;;;;;;",
"           ...#####;;;..@@@@@@..@@@;;;;;...;;;;;;;;...;;;;;;;;;;",
"           ...#####;;;..@@@@@@..@@@;;;;;...;;;;;;;;...;;;;;;;;;;",
"           ...########..@@@@@@..;;;@@@>>...;;;;;;;;...;;;;;;;;;;",
"           ...########..@@@@@@..;;;@@@>>...;;;;;;;;...;;;;;;;;;;",
"           ...########..@@@@@@..;;;@@@>>...;;;;;;;;...;;;;;;;;;;",
"           ...#####;;;..@@@@@@--@@@;;;;;...;;;;;;;;---;;;;;;;;;;",
"           ...#####;;;..@@@@@@--@@@;;;;;...;;;;;;;;---;;;;;;;;;;",
"           ---########..;;;;;;..;;;@@@;;...;;;;;;;;...;;;;;;;;;;",
"           ---########..;;;;;;..;;;@@@;;...;;;;;;;;...;;;;;;;;;;",
"           ---########..;;;;;;..;;;@@@;;...;;;;;;;;...;;;;;;;;;;",
"           ...#####;;;..@@@@@@..@@@;;;;;........................",
"           ...#####;;;..@@@@@@..@@@;;;;;........................",
"              ..######..@@@@@@..@@@@@@..$$&&&&                  ",
"              ..######..@@@@@@..@@@@@@..&&                      ",
"              ..######..@@@@@@..@@@@@@..&&                      ",
"                ...;;;..@@@@@@..@@@...                          ",
"                ...;;;..@@@@@@..@@@...                          ",
"                ...;;;..@@@@@@..@@@...                          ",
"                   .....;;;;;;.....                             ",
"                   .....;;;;;;.....                             "};
