/* XPM */
static char * fence_line_xpm[] = {
"64 64 13 1",
" 	c #72751B",
".	c #5E130F",
"+	c #7F8124",
"@	c #AB6A1B",
"#	c #AB6A1A",
"$	c #782913",
"%	c #787B21",
"&	c #686F16",
"*	c #C4961F",
"=	c #914517",
"-	c #914516",
";	c #782912",
">	c #5E130E",
"                         ................                       ",
"                         ................                       ",
"                         ................                       ",
"           ++          ..@@@@@###@@@@@###..                     ",
"           ++          ..@@@@@###@@@@@###..                     ",
"             ++++   ...##@@@$$$$$$$$$$@@@@@...                  ",
"             ++++   ...##@@@$$$$$$$$$$@@@@@...                  ",
"             %%%%%% ...##@@@$$$$$$$$$$@@@@@...                  ",
"             %%%%%..@@@@@$$$@@@@@@@@@@$$$@@@@@..                ",
"             %%%%%..@@@@@$$$@@@@@@@@@@$$$@@@@@..                ",
"           &&%%%%%..@@@@@$$$@@@@@@@@@@$$$@@@@@..                ",
"           &&%%%%%..@@@$$@@@@@@@@@@@@@@@@$$@@@..                ",
"         ++%%&&&&&..@@@$$@@@@@@@@@@@@@@@@$$@@@..                ",
"         ++%%&&&&&..@@@$$@@@@@$$$$$$@@@@@$$@@@..                ",
"         %%%%     ..@@@$$@@@@@$$$$$$@@@@@$$@@@..                ",
"         %%%%     ..@@@$$@@@@@$$$$$$@@@@@$$@@@..                ",
".......$$$..........@@@$$@@@@@@@@@@@$$@@@$$@@@..........$$$.....",
".......$$$..........@@@$$@@@@@@@@@@@$$@@@$$@@@..........$$$.....",
"@@@@@@@...@@@@@@@@..@@@@@$$$@@@@@@@@$$@@@@@@@@..@@@@@@@@...@@@@@",
"@@@@@@@...@@@@@@@@..@@@@@$$$@@@@@@@@$$@@@@@@@@..@@@@@@@@...@@@@@",
"@@@@@@@...@@@@@@@@..@@@@@$$$@@@@@@@@$$@@@@@@@@..@@@@@@@@...@@@@@",
"@@@@@.....@@@@@@@@..***@@@@@$$$$$$$$@@@@@@@***..@@@@@@@@...$$@@@",
"@@@@@.....@@@@@@@@..***@@@@@$$$$$$$$@@@@@@@***..@@@@@@@@...$$@@@",
"*****$$...$$******..===**@@@@@@@@@@@@@@@@**$$$..********.....***",
"*****$$...$$******..===**@@@@@@@@@@@@@@@@**$$$..********.....***",
"*****$$...$$******..===**@@@@@@@@@@@@@@@@**$$$..********.....***",
"=====$$...========..=====****************$$$$$..========...$$===",
"=====$$...========..=====****************$$$$$..========...$$===",
"=======...========..=====@@@@@@@@===--===$$$$$..========...=====",
"=======...========..=====@@@@@@@@===--===$$$$$..========...=====",
"=======...========..=====@@@@@@@@===--===$$$$$..========...=====",
"=======...========..===@@===@@========;;;$$$$$..========...=====",
"=======...========..===@@===@@========;;;$$$$$..========...=====",
"=======...========..=====@@@@@@@@=====---$$$$$..========...=====",
"=======...========..=====@@@@@@@@=====---$$$$$..========...=====",
"=======...========..=====@@@@@@@@=====---$$$$$..========...=====",
"=======...========..===@@===@@========$$$$$$$$..========...=====",
"=======...========..===@@===@@========$$$$$$$$..========...=====",
"=======...========..===@@===@@========$$$$$$$$..========...=====",
"=======...========>>=====@@@@@@@@========$$$$$>>========...=====",
"=======...========>>=====@@@@@@@@========$$$$$>>========...=====",
"=======...========..===@@@@@@@========$$$$$$$$..========...=====",
"=======...========..===@@@@@@@========$$$$$$$$..========...=====",
"=======...========..===@@@@@@@========$$$$$$$$..========...=====",
"==---==...========..=====@@@@@@@@========;;$$$..========...=====",
"==---==...========..=====@@@@@@@@========;;$$$..========...=====",
"=======...========..===@@===@@========$$$$$$$$..========...=====",
"=======...========..===@@===@@========$$$$$$$$..========...=====",
"=======...========..===@@===@@========$$$$$$$$..========...=====",
"=======...========..=====@@@@@@@@========$$$$$..========...=====",
"=======...========..=====@@@@@@@@========$$$$$..========...=====",
"=======...========..===@@===@@========$$$$$$$$..========...=====",
"=======...========..===@@===@@========$$$$$$$$..========...=====",
"=======...========..===@@===@@========$$$$$$$$..========...=====",
"....................=====@@@@@@@@========$$$$$..................",
"....................=====@@@@@@@@========$$$$$..................",
"                    ...@@@@@@@========$$$$$...                  ",
"                    ...@@@@@@@========$$$$$...                  ",
"                    ...@@@@@@@========$$$$$...                  ",
"                       ..@@@@@@@@========..                     ",
"                       ..@@@@@@@@========..                     ",
"                       ..@@@@@@@@========..                     ",
"                         ................                       ",
"                         ................                       "};
