/* XPM */
static char * fence_bordure_xpm[] = {
"64 64 10 1",
" 	c #7F8124",
".	c #72751B",
"+	c #5E130F",
"@	c #AB6A1B",
"#	c #787B21",
"$	c #686F16",
"%	c #782913",
"&	c #C4961F",
"*	c #914517",
"=	c #AB6A1A",
"  ..................+++@@@@@@@+++...............................",
"  ..................+++@@@@@@@+++...............................",
"..     .............+++@@@@@@@+++...............................",
"..     .............+++@@@@@@@+++...............................",
"..#######...........+++@@@@@@@+++...............................",
"..#######...........+++@@@@@@@+++...............................",
"..#######........+++++++++++++++++++............................",
"..#######........+++++++++++++++++++............................",
"$$#######...+++++@@@@@@@@@@@@@@@@@@@+++++.......................",
"$$#######...+++++@@@@@@@@@@@@@@@@@@@+++++.......................",
"##$$$$$$$.++@@@@@@@@%%%%%%%%%%%%%@@@@@@@@++.....................",
"##$$$$$$$.++@@@@@@@@%%%%%%%%%%%%%@@@@@@@@++.....................",
"##$$$$$$$.++@@@@@@@@%%%%%%%%%%%%%@@@@@@@@++.....................",
"##.....+++@@@@@@@%%%@@@@@@@@@@@@@%%%@@@@@@@+++..................",
"##.....+++@@@@@@@%%%@@@@@@@@@@@@@%%%@@@@@@@+++..................",
"##.....+++@@%%%%%@@@@@@@@@@@@@@@@@@@%%%%%@@+++..................",
"$$.....+++@@%%%%%@@@@@@@@@@@@@@@@@@@%%%%%@@+++..................",
"$$.....+++@@%%%%%@@@@@@%%%%%%%@@@@@@%%%%%@@+++..................",
".......+++@@%%%%%@@@@@@@@@@@@@%%%@@@%%%%%@@+++..................",
".......+++@@%%%%%@@@@@@@@@@@@@%%%@@@%%%%%@@+++..................",
".......+++@@%%%%%@@@@@@@@@@@@@%%%@@@%%%%%@@+++..................",
".......+++@@@@@@@%%%@@@@@@@@@@%%%@@@@@@@@@@+++..................",
".......+++@@@@@@@%%%@@@@@@@@@@%%%@@@@@@@@@@+++..................",
".......+++@@@@@@@%%%@@@@@@@@@@%%%@@@@@@@@@@+++..................",
".......+++&&@@@@@@@@%%%%%%%%%%@@@@@@@@@@@&&+++..................",
".......+++&&@@@@@@@@%%%%%%%%%%@@@@@@@@@@@&&+++..................",
".......+++**&&&&&@@@@@@==@@@@@@@@@@@&&&&&%%+++..................",
".......+++**&&&&&@@@@@@==@@@@@@@@@@@&&&&&%%+++..................",
".......+++*******&&&&&&&&&&&&&&&&&&&%%%%%%%+++..................",
".......+++*******&&&&&&&&&&&&&&&&&&&%%%%%%%+++..................",
".......+++*******@@@+++@@@@@@@+++***%%%%%%%+++..................",
".......+++*******@@@+++@@@@@@@+++***%%%%%%%+++..................",
".......+++**@@@@@***+++@@@@@@@+++%%%%%%%%%%+++..................",
".......+++**@@@@@***+++@@@@@@@+++%%%%%%%%%%+++..................",
".......+++**@@@@@***+++@@@@@@@+++%%%%%%%%%%+++..................",
".......+++*******===+++@@@@@@@+++***%%%%%%%+++..................",
".......+++**@@@@@***+++@@@@@@@+++%%%%%%%%%%+++..................",
"..     +++**@@@@@***+++@@@@@@@+++%%%%%%%%%%+++..................",
"..     +++**@@@@@***+++@@@@@@@+++%%%%%%%%%%+++..................",
".......+++*******@@@+++*******+++***%%%%%%%+++..................",
".......+++*******@@@+++*******+++***%%%%%%%+++..................",
"       +++**@@@@@@@@+++@@@@@@@+++%%%%%%%%%%+++..................",
"       +++**@@@@@@@@+++@@@@@@@+++%%%%%%%%%%+++..................",
"       +++*******@@@+++@@@@@@@+++***%%%%%%%+++..................",
"       +++*******@@@+++@@@@@@@+++***%%%%%%%+++..................",
"       +++*******@@@+++@@@@@@@+++***%%%%%%%+++..................",
"  #####+++**@@@@@***+++@@@@@@@+++%%%%%%%%%%+++..................",
"  #####+++**@@@@@***+++@@@@@@@+++%%%%%%%%%%+++..................",
"$$#####+++*******@@@+++@@@@@@@+++***%%%%%%%+++..................",
"$$#####+++*******@@@+++@@@@@@@+++***%%%%%%%+++..................",
"..$$$$$+++**@@@@@***+++*******+++%%%%%%%%%%+++..................",
"..$$$$$+++**@@@@@***+++*******+++%%%%%%%%%%+++..................",
".......+++*******@@@+++@@@@@@@+++***%%%%%%%+++....     .........",
"..........++@@@@@@@@+++@@@@@@@+++%%%%%%%%++.......     .........",
"..........++@@@@@@@@+++@@@@@@@+++%%%%%%%%++.......     .........",
"..........++@@@@@@@@+++@@@@@@@+++%%%%%%%%++.......     .........",
"..........++@@@@@@@@+++@@@@@@@+++%%%%%%%%++...    ..............",
"............+++++@@@+++@@@@@@@+++***+++++  ...    ..............",
"............+++++@@@+++@@@@@@@+++***+++++##$$$####..............",
".................++++++*******++++++..#####$$$####..............",
".................++++++*******++++++..$$$##$$$$$$$..............",
"....................+++@@@@@@@+++.....$$$##$$$$$$$..............",
"....................+++@@@@@@@+++.....$$$##$$$$$$$..............",
"....................+++@@@@@@@+++........$$....................."};
