/* XPM */
static char * flat_xpm[] = {
"64 64 4 1",
" 	c #72751B",
".	c #7F8124",
"+	c #787B21",
"@	c #686F16",
"                                                                ",
"                                                                ",
"                                                                ",
"           ..                                                   ",
"           ..                                                   ",
"             ....                                               ",
"             ....                                               ",
"             ++++++                                             ",
"             ++++++                                             ",
"             ++++++                                             ",
"           @@++++++                                             ",
"           @@++++++                                             ",
"         ..++@@@@@@                                             ",
"         ..++@@@@@@                                             ",
"         ++++                                                   ",
"         ++++                                                   ",
"         ++++                                                   ",
"         @@@@                                                   ",
"         @@@@                                                   ",
"                                                                ",
"                                                                ",
"                                                                ",
"                                                                ",
"                                                                ",
"                                                                ",
"                                                                ",
"                                                                ",
"                                                                ",
"                                                                ",
"                                                                ",
"                                                                ",
"                                                                ",
"                                                                ",
"                                                                ",
"                                                                ",
"             ......           ..                             ++ ",
"             ......           ..                             ++ ",
"                 ..++++   ++..                               +++",
"                 ..++++   ++..                               +++",
"         ++......@@++@@+++++@@                               @@+",
"         ++......@@++@@+++++@@                               @@+",
"         ++......@@++@@+++++@@                               @@+",
"           ..++++++@@@@+++++@@                                 @",
"           ..++++++@@@@+++++@@                                 @",
"           @@++++++    +++@@                                    ",
"           @@++++++    +++@@                                    ",
"             @@@@++                                             ",
"             @@@@++                                             ",
"                                    ....      ....              ",
"                                    ....      ....              ",
"                                    ....      ....              ",
"                                      ....  ..                  ",
"                                      ....  ..                  ",
"                                      ++++@@++                  ",
"                                      ++++@@++                  ",
"                                      @@++@@@@                  ",
"                                      @@++@@@@                  ",
"                                        @@                      ",
"                                        @@                      ",
"                                                                ",
"                                                                ",
"                                                                ",
"                                                                ",
"                                                                "};
