/* XPM */
static char * perso_xpm[] = {
"64 64 9 1",
" 	c #72751B",
".	c #7F8124",
"+	c #787B21",
"@	c #04193F",
"#	c #686F16",
"$	c #F489F6",
"%	c #780BF7",
"&	c #D840FB",
"*	c #FCFEFE",
"                                                                ",
"                                                                ",
"                                                                ",
"           ..                                                   ",
"           ..                                                   ",
"             ....                                               ",
"             ....                                               ",
"             ++++++                                             ",
"             ++++++ @@@@          @@@@                          ",
"             ++++++ @@@@          @@@@                          ",
"           ##+++++@@$$$$@@      @@%%%%@@                        ",
"           ##+++++@@$$$$@@      @@%%%%@@                        ",
"         ..++###@@$$$$$$$$@@  @@%%%%%%@@                        ",
"         ..++###@@$$$$$$$$@@  @@%%%%%%@@                        ",
"         ++++   @@$$$$$$$$$$@@@@%%%%%%%%@@                      ",
"         ++++   @@$$$$$$$$$$@@@@%%%%%%%%@@                      ",
"         ++++     @@$$$$$$&&&&&&&&%%%%%%@@                      ",
"         ####     @@$$$$$$&&&&&&&&%%%%%%@@                      ",
"         ####     @@&&$$$$$$$$$$&&&&&&%%%%@@                    ",
"                  @@&&$$$$$$$$$$&&&&&&%%%%@@                    ",
"                @@&&$$$$$$$$$$$$$$&&&&&&%%@@                    ",
"                @@&&$$$$$$$$$$$$$$&&&&&&%%@@                    ",
"                @@$$$$$$$$$$************%%%%@@                  ",
"                @@$$$$$$$$$$************%%%%@@                  ",
"              @@&&$$$$$$$$****************%%@@                  ",
"              @@&&$$$$$$$$****************%%@@                  ",
"              @@$$$$$$$$****@@@@@@******@@@@%%@@                ",
"              @@$$$$$$$$****@@@@@@******@@@@%%@@                ",
"              @@$$$$$$$$**@@@@****@@**@@@@**@@@@                ",
"              @@$$$$$$$$**@@@@****@@**@@@@**@@@@                ",
"              @@$$$$$$$$**@@@@****@@**@@@@**@@@@                ",
"              @@$$$$$$$$**@@@@****@@**@@@@**@@@@                ",
"              @@$$$$$$$$**@@@@@@@@@@**@@@@@@@@@@                ",
"              @@$$$$$$$$**@@@@@@@@@@**@@@@@@@@@@                ",
"              @@&&$$$$$$$$**@@@@@@******@@@@%%@@                ",
"             .@@&&$$$$$$$$**@@@@@@******@@@@%%@@             ++ ",
"             ...@@$$$$$$$$******************@@               ++ ",
"                @@$$$$$$$$******************@@               +++",
"                @@&&$$$$$$$$&&************%%@@               +++",
"         ++.....@@&&$$$$$$$$&&************%%@@               ##+",
"         ++......#@@$$$$$$$$$$&&&&&&%%%%%%@@                 ##+",
"         ++......#@@$$$$$$$$$$&&&&&&%%%%%%@@                 ##+",
"           ..+++++@@$$$$$$$$$$$$******%%@@                     #",
"           ..+++++@@$$$$$$$$$$$$******%%@@                     #",
"           ##+++@@$$$$$$$$%%$$********%%%%@@                    ",
"           ##+++@@$$$$$$$$%%$$********%%%%@@                    ",
"             ###@@$$$$$$$$%%$$**********%%@@                    ",
"             ###@@$$$$$$$$%%$$**********%%@@                    ",
"              @@$$$$$$$$%%&&************%%%%@@....              ",
"              @@$$$$$$$$%%&&************%%%%@@....              ",
"              @@$$$$$$$$%%&&************%%%%@@....              ",
"              @@$$$$$$$$%%&&************%%%%@@                  ",
"              @@$$$$$$%%&&$$************%%%%@@                  ",
"              @@$$$$$$%%&&$$************%%%%@@                  ",
"                @@%%%%&&&&$$$$********%%@@@@++                  ",
"                @@%%%%&&&&$$$$********%%@@@@##                  ",
"                  @@&&&&$$$$$$&&&&&&%%%%@@####                  ",
"                  @@&&&&$$$$$$&&&&&&%%%%@@                      ",
"                  @@$$$$$$$$@@@@%%%%%%%%@@                      ",
"                  @@$$$$$$$$@@@@%%%%%%%%@@                      ",
"                  @@$$$$$$$$@@@@%%%%%%@@                        ",
"                  @@$$$$$$$$@@@@%%%%%%@@                        ",
"                  @@$$$$$$@@  @@%%%%%%@@                        ",
"                  @@$$$$$$@@  @@%%%%%%@@                        "};
