/* XPM */
static char * box_xpm[] = {
"64 64 11 1",
" 	c #06050D",
".	c #333941",
"+	c #4A5462",
"@	c #6D758D",
"#	c #9BABB2",
"$	c #F0A070",
"%	c #C87858",
"&	c #6E2727",
"*	c #893A34",
"=	c #A05848",
"-	c #1F242B",
"                                                                ",
"                                                                ",
"  ....++++....++++++@@                    ++++..  ++@@@@++....  ",
"  ....++++....++++++@@                    ++++..  ++@@@@++....  ",
"  ..##########@@@@@   $$$$%%   %%%@@@%%@@@  @@@@..@@@@@@@@@@++  ",
"  ..##########@@@@@   $$$$%%   %%%@@@%%@@@  @@@@..@@@@@@@@@@++  ",
"  ++##@@@@@@@@@@   $$%&&&&**%%%   =++@@=++@@  @@..++@@@@@@@@++  ",
"  ++##@@@@@@@@@@   $$%&&&&**%%%   =++@@=++@@  @@..++@@@@@@@@++  ",
"  ++##@@@@@@@@@ $$$&&*=***%%=**%%% %%@@%%%@@%%  ..++@@@@@@++..  ",
"  ++##@@@@@@@@@ $$$&&*=***%%=**%%% %%@@%%%@@%%  ..++@@@@@@++..  ",
"  ++##@@@@@@@@@ %%%**==***%%%**=== %%@@%%%@@%%  @@..@@@@++..    ",
"  ++##@@@@@@@  $&&&**==***%%%**===%  ==+====++**  ..@@@@++..    ",
"  ++@@@@@@@@@  $&&&**==***%%%**===%  ==+====++**  ..++@@..  @@  ",
"  ++@@@@@@@@@  $&&&**==***%%%**===%  ==+====++**  ..++@@..  @@  ",
"  ++@@@@@@@@@  $&&&**==***%%%**===%  ==+====++**  ##..++..##++  ",
"  ++@@@@@@@@@  $&&&**=%===%%%**===%  **+****++**  ##..++..##++  ",
"  @@@@@@@@@@@  $&&&**%%===%%%**===%  ==.%%==..**  ##....##@@++  ",
"  @@@@@@@@@@@  $&&&**%%===%%%**===%  ==.%%==..**  ##....##@@++  ",
"  @@@@@@@@@@@  $&&&**%%===%%%**===%  ==.%%==..**  @@####@@@@@@  ",
"  @@@@@@@@@@@  $&&&**%%===%%%**===%  ==.%%==..**  @@####@@@@@@  ",
"  @@@@@@@@@@@  %***==%%===%%%**===%  ==.====..**  @@@@@@@@@@@@  ",
"  @@@@@@@@@@@  %***==%%===%%%**===%  ==.====..**  @@@@@@@@@@@@  ",
"  ..@@@@@@@@@@@ ***==%%===%%%**$$$ **..***..**  @@@@@@@@@@@@@@  ",
"  ..@@@@@@@@@@@ ***==%%===%%%**$$$ **..***..**  @@@@@@@@@@@@@@  ",
"  ....@@@@@@@@@ ***==%%===%%%**$$$ **..***..**  ++@@@@@@@@@@++  ",
"  ....@@@@@@@@@ ***==%%===%%%**$$$ **..***..**  ++@@@@@@@@@@++  ",
"  ++....@@@@@@@ %%%**=%***%%=**%%% ==..===..**  ++++@@@@@@@@++  ",
"  ++....@@@@@@@ %%%**=%***%%=**%%% ==..===..**  ++++@@@@@@@@++  ",
"  ++++++..         %%%=***==$%%                      @@@@@@@..  ",
"  ++++++  $$$$$%      $$$$$$      $$$%%   %%@@@@%%@@@  @@@@@..  ",
"  ++++++  $$$$$%      $$$$$$      $$$%%   %%@@@@%%@@@  @@@++..  ",
"  ++++++  $$$$$%      $$$$$$      $$$%%   %%@@@@%%@@@  @@@++..  ",
"  ++++@@  $$$$$%      $$$$$$      $$$%%   %%@@@@%%@@@  @@@++..  ",
"  ++++  $%&&&&&*%%%%%        $$%%%&&&**%%%  ==++@@==+@@  @++..  ",
"  @@  $$&*===**%===**% ***  $&&***=**%%=**%%  %%@@%%%@@%%  #..  ",
"  @@  $$&*===**%===**% ***  $&&***=**%%=**%%  %%@@%%%@@%%  #..  ",
"  @@  %%*====**%%%%**= ***  %**====**%%%**==  %%@@%%%@@%%  @..  ",
"  @@  %%*====**%%%%**= ***  %**====**%%%**==  %%@@%%%@@%%  @..  ",
"  ++  %%*====**%%%%**= ***  %**====**%%%**==  %%@@%%%@@%%  @++  ",
"    $$&&*====**%%%%**=%   $$&**====**%%%**==%%  ==++===++**  +  ",
"    $$&&*=%%%==%%%%**=%   $$&**===%==%%%**==%%  **++***++**  #  ",
"    $$&&*=%%%==%%%%**=%   $$&**===%==%%%**==%%  **++***++**  #  ",
"    $$&&*=%%%==%%%%**=%   $$&**===%==%%%**==%%  **++***++**  @  ",
"    $$&&*%%%%==%%%%**=%   $$&**%%%%==%%%**==%%  ==..%==..**  @  ",
"    $$&&*%%%%==%%%%**=%   $$&**%%%%==%%%**==%%  ==..%==..**  @  ",
"    $$&&*%%%%==%%%%**=%   $$&**%%%%==%%%**==%%  ==..%==..**  @  ",
"    %%**=%%%%==%%%%**=%   %%*==%%%%==%%%**==%%  ==..===..**  @  ",
"    %%**=%%%%==%%%%**=%   %%*==%%%%==%%%**==%%  ==..===..**  @  ",
"    %%**=%%%%==%%%%**=%   %%*==%%%%==%%%**==%%  ==..===..**  @  ",
"    %%**=%%%%==%%%%**=%   %%*==%%%%==%%%**==%%  ==..===..**  @  ",
"  @@  **=%%%%==%%%%**$ ***  *==%%%%==%%%**$$  **..***..**  @@@  ",
"  @@  **=%%%%==%%%%**$ ***  *==%%%%==%%%**$$  **..***..**  @@@  ",
"  @@  %%*=%%%**%===**% ===  %**===%**%%=**%%  ==..===..**  @++  ",
"  @@@@  %%===**=$$$%% &...-- %%%%%=**==$%%  &&..--&&.--  @@@++  ",
"  ++@@  %%===**=$$$%% &...-- %%%%%=**==$%%  &&..--&&.--  @@@++  ",
"  ++@@  %%===**=$$$%% &...-- %%%%%=**==$%%  &&..--&&.--  @@@++  ",
"  ++@@@@  $$$$$$     *----**-     $$$$$   **----**---  @@@++++  ",
"  ++@@@@@@                                           @@@@@++++  ",
"  ..++@@@@                                           @@@++....  ",
"  ..++@@@@                                           @@@++....  ",
"  ....++++                                           @++++....  ",
"  ....++++++++@@@@++@@@@@@@@@@@@++++++++....++++@@@@@@++++....  ",
"                                                                ",
"                                                                "};
