/* XPM */
static char * coin2_xpm[] = {
"64 64 10 1",
" 	c #06050D",
".	c #333941",
"+	c #4A5462",
"@	c #6D758D",
"#	c #9BABB2",
"$	c #180E0E",
"%	c #FFFFFF",
"&	c #FFFF00",
"*	c #FF9F00",
"=	c #CC7F00",
"                                                                ",
"                                                                ",
"  ....++++....++++++@@@@@@@@@@@@@@@@@@@@@@++++..  ++@@@@++....  ",
"  ....++++....++++++@@@@@@@@@@@@@@@@@@@@@@++++..  ++@@@@++....  ",
"  ..##########@@@@@@########@@@@@@@@@@@@@@@@@@@@..@@@@@@@@@@++  ",
"  ..##########@@@@@@########@@@@@@@@@@@@@@@@@@@@..@@@@@@@@@@++  ",
"  ++##@@@@@@@@@@@@@@@@@@@@@@@@@@@@@@@@@@@@@@@@@@..++@@@@@@@@++  ",
"  ++##@@@@@@@@@@@@@@@@@@@@@@@@@@@@@@@@@@@@@@@@@@..++@@@@@@@@++  ",
"  ++##@@@@@@@@@@@@@@@@@@@@@@@@@@@@@@@@@@@@@@@@@@..++@@@@@@++..  ",
"  ++##@@@@@@@@@@@@@@@@@@@@$$$$$$$$$$$@@@@@@@@@@@..++@@@@@@++..  ",
"  ++##@@@@@@@@@@@@@@@@@@@@$$$$$$$$$$$@@@@@@@@@@@@@..@@@@++..    ",
"  ++##@@@@@@@@@@@@@@@@@@@@$$$$$$$$$$$@@@@@@@@@@@@@..@@@@++..    ",
"  ++@@@@@@@@@@@@@@@@@@@$$$%%%%%%&&&%%$$$@@@@@@@@@@..++@@..  @@  ",
"  ++@@@@@@@@@@@@@@@@@@@$$$%%%%%%&&&%%$$$@@@@@@@@@@..++@@..  @@  ",
"  ++@@@@@@@@@@@@@@@@@@@$$$%%%%%%&&&%%$$$@@@@@@@@@@##..++..##++  ",
"  ++@@@@@@@@@@@@@@@@$$$%%%%%%***%%%**===$$$@@@@@@@##..++..##++  ",
"  @@@@@@@@@@@@@@@@@@$$$%%%%%%***%%%**===$$$@@@@@@@##....##@@++  ",
"  @@@@@@@@@@@@@@@@@@$$$%%%%%%***%%%**===$$$@@@@@@@##....##@@++  ",
"  @@@@@@@@@@@@@@@@@@$$$%%%***%%%*****===$$$@@@@@@@@@####@@@@@@  ",
"  @@@@@@@@@@@@@@@@@@$$$%%%***%%%*****===$$$@@@@@@@@@####@@@@@@  ",
"  @@@@@@@@@@@@@@@$$$%%%***%%%&&&&&&*****===$$$@@@@@@@@@@@@@@@@  ",
"  @@@@@@@@@@@@@@@$$$%%%***%%%&&&&&&*****===$$$@@@@@@@@@@@@@@@@  ",
"  ..@@@@@@@@@@@@@$$$%%%***%%%&&&&&&*****===$$$@@@@@@@@@@@@@@@@  ",
"  ..@@@@@@@@@@@@@$$$&&&%%%***&&&===*****===$$$@@@@@@@@@@@@@@@@  ",
"  ....@@@@@@@@@@@$$$&&&%%%***&&&===*****===$$$@@++@@@@@@@@@@++  ",
"  ....@@@@@@@@@@@$$$&&&%%%***&&&===*****===$$$@@++@@@@@@@@@@++  ",
"  ++....@@@@@@@@@$$$%%%***&&&&&&===*****===$$$@@++++@@@@@@@@++  ",
"  ++....@@@@@@@@@$$$%%%***&&&&&&===*****===$$$@@++++@@@@@@@@++  ",
"  ++++++..@@@@@@@$$$%%%***&&&&&&===*****===$$$@@@@@@@@@@@@@@..  ",
"  ++++++..@@@@@@@$$$&&&******&&&===*****===$$$@@@@@@@@@@@@@@..  ",
"  ++++++@@@@@@@@@$$$&&&******&&&===*****===$$$@@@@@@@@@@@@++..  ",
"  ++++++@@@@@@@@@$$$&&&******&&&===*****===$$$@@@@@@@@@@@@++..  ",
"  ++++@@@@@@@@@@@$$$&&&******&&&===*****===$$$@@@@@@@@@@@@++..  ",
"  ++++@@@@@@@@@@@$$$&&&******&&&===*****===$$$@@@@@@@@@@@@++..  ",
"  @@@@@@@@@@@@@@@$$$&&&******&&&===*****===$$$@@@@++@@@@@@##..  ",
"  @@@@@@@@@@@@@@@$$$&&&******&&&===*****===$$$@@@@++@@@@@@##..  ",
"  @@@@@@@@@@@@@@@$$$&&&******&&&===*****===$$$@@++..@@@@@@@@..  ",
"  @@@@@@@@@@@@@@@$$$&&&******&&&===*****===$$$@@++..@@@@@@@@..  ",
"  ++++++@@@@@@@@@$$$&&&******&&&===*****===$$$....++@@@@@@@@++  ",
"  ++++++@@@@@@@@@$$$&&&******&&&===*****===$$$....++@@@@@@@@++  ",
"  ++######@@@@@@@$$$&&&******&&&===*****===$$$..++@@@@@@@@@@##  ",
"  ++######@@@@@@@$$$&&&******======*****===$$$..++@@@@@@@@@@##  ",
"  @@@@@@@@@@@@@@@$$$&&&******======*****===$$$++++@@@@@@@@@@@@  ",
"  @@@@@@@@@@@@@@@$$$&&&*****************===$$$++++@@@@@@@@@@@@  ",
"  @@@@@@@@@@@@@@@$$$&&&*****************===$$$++++@@@@@@@@@@@@  ",
"  @@@@@@@@@@@@@@@$$$&&&*****************===$$$++++@@@@@@@@@@@@  ",
"  @@@@@@@@++@@@@@@@@$$$&&&***********===$$$+++@@@@@@@@@@@@@@@@  ",
"  @@@@@@@@++@@@@@@@@$$$&&&***********===$$$+++@@@@@@@@@@@@@@@@  ",
"  @@@@@@++++@@@@@@@@$$$&&&***********===$$$+@@@@@@@@@@@@@@@@@@  ",
"  @@@@@@++++@@@@@@@@@@@$$$===========$$$@@++@@@@@@@@@@@@@@@@@@  ",
"  @@@@@@@@++@@@@@@@@@@@$$$===========$$$@@@@@@@@@@@@@@@@@@@@@@  ",
"  @@@@@@@@++@@@@@@@@@@@$$$===========$$$@@@@@@@@@@@@@@@@@@@@@@  ",
"  @@@@@@@@@@@@@@++@@@@@@@@$$$$$$$$$$$@@@@@@@@@@@@@@@@@@@@@@@++  ",
"  @@@@@@@@@@@@@@++@@@@@@@@$$$$$$$$$$$@@@@@@@@@@@@@@@@@@@@@@@++  ",
"  ++@@@@@@@@@@++++@@@@@@@@$$$$$$$$$$$@@@@@@@@@@@@@@@@@@@@@@@++  ",
"  ++@@@@@@@@@@++++@@@@@@@@@@@@@@@@@@@@@@@@@@@@@@@@@@@@@@@@@@++  ",
"  ++@@@@@@@@@@++++@@@@@@@@@@@@@@@@@@@@@@@@++@@@@@@@@@@@@@@++++  ",
"  ++@@@@@@@@@@++++@@@@@@@@@@@@@@@@@@@@@@@@++@@@@@@@@@@@@@@++++  ",
"  ..++@@@@@@@@@@@@@@@@@@@@@@@@@@@@@@@@@@##++@@@@@@@@@@@@++....  ",
"  ..++@@@@@@@@@@@@@@@@@@@@@@@@@@@@@@@@@@##++@@@@@@@@@@@@++....  ",
"  ....++++++++@@@@++@@@@@@@@@@@@++++++++....++++@@@@@@++++....  ",
"  ....++++++++@@@@++@@@@@@@@@@@@++++++++....++++@@@@@@++++....  ",
"                                                                ",
"                                                                "};
