/* XPM */
static char * food_xpm[] = {
"64 64 24 1",
" 	c #06050D",
".	c #333941",
"+	c #4A5462",
"@	c #6D758D",
"#	c #9BABB2",
"$	c #2F0901",
"%	c #FFEA35",
"&	c #6A2408",
"*	c #FFC42C",
"=	c #E1A428",
"-	c #FFFF5F",
";	c #9D450C",
">	c #9B571C",
",	c #FFFFAA",
"'	c #250500",
")	c #7B300B",
"!	c #C67D1F",
"~	c #F6C431",
"{	c #461102",
"]	c #8A3608",
"^	c #380901",
"/	c #601602",
"(	c #722104",
"_	c #571604",
"                                                                ",
"                                                                ",
"  ....++++....++++++@@@@@@@@@@@@@@@@@@@@@@++++..  ++@@@@++....  ",
"  ....++++....++++++@@@@@@@@@@@@@@@@@@@@@@++++..  ++@@@@++....  ",
"  ..##########@@@@@@########@@@@@@@@@@@@@@@@@@@@..@@@@@@@@@@++  ",
"  ..##########@@@@@@########@@@@@@@@@@@@@@@@@@@@..@@@@@@@@@@++  ",
"  ++##@@@@@@@@@@@@@@@@@@@@@@@@@@@@@@@@@@@@@@@@@@..++@@@@@@@@++  ",
"  ++##@@@@@@@@@@@@@@@@@@@@@@@@@@@@@@@@@@@@@@@@@@..++@@@@@@@@++  ",
"  ++##@@@@@@@@@@@@@@@@@@@@@@@@@@@@@@@@@@@@@@@@@@..++@@@@@@++..  ",
"  ++##@@@@@@@@@@@@@@@@@@@@@@@@@@@@@@@@@@@@@@@@@@..++@@@@@@++..  ",
"  ++##@@@@@@@@@@@@@@$$$@@@@@@@@@@@@@@@@@@@@@@@@@@@..@@@@++..    ",
"  ++##@@@@@@@@@@@@@@$$$@@@@@@@@@@@@@@@@@@@@@@@@@@@..@@@@++..    ",
"  ++@@@@@@@@@@@@@@$$%%%$$@@@@@@@@@@@@@@@@@@@@@@@@@..++@@..  @@  ",
"  ++@@@@@@@@@@@@@$&&*==%-$$@@@@@@@@@@@@@@@@@@@@@@@..++@@..  @@  ",
"  ++@@@@@@@@@@@@@$&&*==%-$$@@@@@@@@@@@@@@@@@@@@@@@##..++..##++  ",
"  ++@@@@@@@@@@@@@$;;&==>>,,$@@@@@@@@@@@@@@@@@@@@@@##..++..##++  ",
"  @@@@@@@@@@@@@@@@''&===)>>-$$@@@@$$$$$$$$@@@@@@@@##....##@@++  ",
"  @@@@@@@@@@@@@@@@'';&&!=))>%%$@$$~~~%---,$$@@@@@@##....##@@++  ",
"  @@@@@@@@@@@@@@@@'';&&!=))>%%$@$$~~~%---,$$@@@@@@@@####@@@@@@  ",
"  @@@@@@@@@@@@@@@@@@';;&!==)>>%$===>>>>>>=--$@@@@@@@####@@@@@@  ",
"  @@@@@@@@@@@@@@@@@@@$$;&!!=))>~{{>!!!!!!>==%$$@@@@@@@@@@@@@@@  ",
"  @@@@@@@@@@@@@@@@@@@$$;&!!=))>~{{>!!!!!!>==%$$@@@@@@@@@@@@@@@  ",
"  ..@@@@@@@@@@@@@@@@@@@']&&!==)>~~{======!>>*$$@@@@@@@@@@@@@@@  ",
"  ..@@@@@@@@@@@@@@@@@@@@']]&!!=>=={==~%%,=!!>%%$@@@@@@@@@@@@@@  ",
"  ....@@@@@@@@@@@@@@@@@@@'']&&!!==={{~~~%%==>**$++@@@@@@@@@@++  ",
"  ....@@@@@@@@@@@@@@@@@@@'']&&!!==={{~~~%%==>**$++@@@@@@@@@@++  ",
"  ++....@@@@@@@@@@@@@@@@@@@']]&&!!!{{~~~~~==>==$++++@@@@@@@@++  ",
"  ++....@@@@@@@@@@@@@@@@@@@@''^]&&^==~~~~=>>=&&$++++@@@@@@@@++  ",
"  ++++++..@@@@@@@@@@@@@@@@@@''^]&&^==~~~~=>>=&&$@@@@@@@@@@@@..  ",
"  ++++++..@@@@@@@@@@@@@@@@@@''/^^^>!!====>==!&&'@@@@@@@@@@@@..  ",
"  ++++++@@@@@@@@@@@@@@@@@@@@''(_!!!>>>>>>=!!&;;'@@@@@@@@@@++..  ",
"  ++++++@@@@@@@@@@@@@$$$$$$@@@'(__&!!!!!=&&&;''@@@@@@@@@@@++..  ",
"  ++++@@@@@@@@@@@@@@@$$$$$$@@@'(__&!!!!!=&&&;''@@@@@@@@@@@++..  ",
"  ++++@@@@@@@@@@@@@@$~~%%--$$$@']]]&&&&&&];;'@@@@@@@@@@@@@++..  ",
"  @@@@@@@@@@@@@@@@$$~==>>>>-,,$@''']]];;;'''@@@@@@++@@@@@@##..  ",
"  @@@@@@@@@@@@@@@@$$~==>>>>-,,$@''']]];;;'''@@@@@@++@@@@@@##..  ",
"  @@@@@@@@@@@@@@@$~~=>>==!!>>>-$@@@''''''@@@@@@@++..@@@@@@@@..  ",
"  @@@@@@@@@@@@@@'_==>!!=~%%=!!>%$$@@@@@@@@@@@@@@++..@@@@@@@@..  ",
"  ++++++@@@@@@@@'_==>!!=~%%=!!>%$$@@@@@@@@@@++....++@@@@@@@@++  ",
"  ++++++@@@@@@@@'&==>!!~~%%,==!>%%$@@@@@@@@@++....++@@@@@@@@++  ",
"  ++######@@@@@@'&==>!!=~~~%%%=>**$@@@@@@@......++@@@@@@@@@@##  ",
"  ++######@@@@@@';&&=>>!=~~~%%~!>>*$$@@@@@......++@@@@@@@@@@##  ",
"  @@@@@@@@@@@@@@';&&=>>!=~~~%%~!>>*$$@@@@@....++++@@@@@@@@@@@@  ",
"  @@@@@@@@@@@@@@@'&&===>!==~~~=!>>*$$@@@@@....++++@@@@@@@@@@@@  ",
"  @@@@@@@@@@@@@@@';;&===>!!===!>**!$$@@@@@..++++++@@@@@@@@@@@@  ",
"  @@@@@@@@@@@@@@@';;&===>!!===!>**!$$@@@@@..++++++@@@@@@@@@@@@  ",
"  @@@@@@@@++@@@@@@'';&&==>>>>>>=!!_''@@@@@++++@@@@@@@@@@@@@@@@  ",
"  @@@@@@@@++@@@@@@@@';;&&======!__/''@@@@@++++@@@@@@@@@@@@@@@@  ",
"  @@@@@@++++@@@@@@@@@'';;&&&&&&&(('@@@@@@@++@@@@@@@@@@@@@@@@@@  ",
"  @@@@@@++++@@@@@@@@@'';;&&&&&&&(('@@@@@@@++@@@@@@@@@@@@@@@@@@  ",
"  @@@@@@@@++@@@@@@@@@@@'';;;]]]]''@@@@@@@@@@@@@@@@@@@@@@@@@@@@  ",
"  @@@@@@@@++@@@@@@@@@@@@@'''''''@@@@@@@@@@@@@@@@@@@@@@@@@@@@@@  ",
"  @@@@@@@@@@@@@@++@@@@@@@'''''''@@@@@@@@@@@@@@@@@@@@@@@@@@@@++  ",
"  @@@@@@@@@@@@@@++@@@@@@@@@@@@@@@@@@@@@@@@@@@@@@@@@@@@@@@@@@++  ",
"  ++@@@@@@@@@@++++@@@@@@@@@@@@@@@@@@@@@@@@@@@@@@@@@@@@@@@@@@++  ",
"  ++@@@@@@@@@@++++@@@@@@@@@@@@@@@@@@@@@@@@@@@@@@@@@@@@@@@@@@++  ",
"  ++@@@@@@@@@@++++@@@@@@@@@@@@@@@@@@@@@@@@++@@@@@@@@@@@@@@++++  ",
"  ++@@@@@@@@@@++++@@@@@@@@@@@@@@@@@@@@@@@@++@@@@@@@@@@@@@@++++  ",
"  ..++@@@@@@@@@@@@@@@@@@@@@@@@@@@@@@@@@@##++@@@@@@@@@@@@++....  ",
"  ..++@@@@@@@@@@@@@@@@@@@@@@@@@@@@@@@@@@##++@@@@@@@@@@@@++....  ",
"  ....++++++++@@@@++@@@@@@@@@@@@++++++++....++++@@@@@@++++....  ",
"  ....++++++++@@@@++@@@@@@@@@@@@++++++++....++++@@@@@@++++....  ",
"                                                                ",
"                                                                "};
