/* XPM */
static char * fence_bordure2_xpm[] = {
"64 64 8 1",
" 	c #06050D",
".	c #1F242B",
"+	c #6D758D",
"@	c #9BABB2",
"#	c #C7DCD0",
"$	c #333941",
"%	c #4A5462",
"&	c #000000",
"  ..............  ....                                          ",
"  ..............  ....                                          ",
"  ++@@####@@$$$$  %%%%$$$$$$$$$$  ..$$%%%%%%%%$$$$$$....        ",
"  ++@@####@@$$$$  %%%%$$$$$$$$$$  ..$$%%%%%%%%$$$$$$....        ",
"  ++++++++@@%%$$  %%$$$$$$$$$$$$  $$$$$$$$$$$$$$$$$$....        ",
"  ++++++++@@%%$$  %%$$$$$$$$$$$$  $$$$$$$$$$$$$$$$$$....        ",
"  ++++++++##%%$$  %%$$$$$$$$$$$$  %%$$$$$$$$$$$$$$......        ",
"  ++++++++##%%$$  %%$$$$$$$$$$$$  %%$$$$$$$$$$$$$$......        ",
"  ++++++++##%%%%  $$$$$$$$$$$$$$  %%$$$$$$$$$$$$$$......        ",
"  ++++++++##%%%%  $$$$$$$$$$$$$$  %%$$$$$$$$$$$$$$......        ",
"  ++++++++@@%%%%  $$$$$$$$$$$$$$  $$$$$$$$$$$$$$$$....          ",
"  ++++++++@@%%%%  $$$$$$$$$$$$$$  $$$$$$$$$$$$$$$$....          ",
"  ++++++++##%%%%  $$$$$$$$$$$$$$  ..$$$$$$$$$$$$$$..            ",
"  ++++++++##%%%%  $$$$$$$$$$$$$$  ..$$$$$$$$$$$$$$..            ",
"  ++++++++##%%%%  $$$$$$$$$$$$$$  $$..$$$$$$$$$$$$..            ",
"  ++++++++##%%%%    ..                                          ",
"  ++++++++##%%%%    ..                                          ",
"  ++++++++##%%$$    %%++++%%%%$$$$$$$$$$$$$$$$$$    ........  ..",
"  ++++++++##%%$$    %%++++%%%%$$$$$$$$$$$$$$$$$$    ........  ..",
"                    %%%%%%$$$$$$$$$$$$$$$$$$....  ....          ",
"                    %%%%%%$$$$$$$$$$$$$$$$$$....  ....          ",
"&&  ++@@@@##%%%%$$  %%%%$$$$$$$$$$$$$$$$$$$$....  $$..          ",
"&&  ++@@@@##%%%%$$  %%%%$$$$$$$$$$$$$$$$$$$$....  $$..          ",
"&&  ++++++##%%%%%%  %%$$$$$$$$$$$$$$$$$$$$$$....  $$..          ",
"&&  ++++++##%%%%%%  %%$$$$$$$$$$$$$$$$$$$$$$....  $$..          ",
"&&  ++++++@@%%%%%%  %%$$$$$$$$$$$$$$$$$$$$$$....  ..            ",
"&&  ++++++@@%%%%%%  %%$$$$$$$$$$$$$$$$$$$$$$....  ..            ",
"&&  ++++++@@%%%%%%  $$$$$$$$$$$$$$$$$$$$$$$$..    ..            ",
"&&  ++++++@@%%%%%%  $$$$$$$$$$$$$$$$$$$$$$$$..    ..            ",
"&&  ++++++@@%%%%%%  $$$$$$$$$$$$$$$$$$$$$$$$                    ",
"&&  ++++++@@%%%%%%  $$$$$$$$$$$$$$$$$$$$$$$$                    ",
"&&  ++++++##%%%%%%                                              ",
"&&  ++++++##%%%%%%                                              ",
"&&  ++++++##%%%%$$  $$$$$$$$$$$$  ..$$%%%%%%$$..$$$$..          ",
"&&  ++++++##%%%%$$  $$$$$$$$$$$$  ..$$%%%%%%$$..$$$$..          ",
"&&  ++++++##%%$$$$  $$$$$$$$$$$$  %%$$$$$$$$$$......            ",
"&&  ++++++##%%$$$$  $$$$$$$$$$$$  %%$$$$$$$$$$......            ",
"                    $$$$$$$$$$$$  %%$$$$$$$$$$......            ",
"                    $$$$$$$$$$$$  %%$$$$$$$$$$......            ",
"  ++@@@@####%%%%  %%$$$$$$$$$$$$  $$$$$$$$$$$$......            ",
"  ++@@@@####%%%%  %%$$$$$$$$$$$$  $$$$$$$$$$$$......            ",
"  ++++++++@@%%%%  $$$$$$$$$$$$$$  $$$$$$$$$$$$........          ",
"  ++++++++@@%%%%  $$$$$$$$$$$$$$  $$$$$$$$$$$$........          ",
"  ++++++++##%%%%  $$$$$$$$$$$$$$  ..$$$$$$$$$$........          ",
"  ++++++++##%%%%  $$$$$$$$$$$$$$  ..$$$$$$$$$$........          ",
"  ++++++++##%%%%  $$$$$$$$$$$$$$  ....$$$$$$$$........          ",
"  ++++++++##%%%%                                                ",
"  ++++++++##%%%%                                                ",
"  ++++++++@@%%%%  $$$$$$%%%%%%%%$$$$$$$$$$$$....  ..  ....      ",
"  ++++++++@@%%%%  $$$$$$%%%%%%%%$$$$$$$$$$$$....  ..  ....      ",
"  ++++++++@@%%%%  %%$$$$$$$$$$$$$$$$$$$$$$$$$$$$  ..            ",
"  ++++++++@@%%%%  %%$$$$$$$$$$$$$$$$$$$$$$$$$$$$  ..            ",
"  ++++++++@@%%%%  %%$$$$$$$$$$$$$$$$$$$$$$$$$$$$  $$            ",
"  ++++++++@@%%%%  %%$$$$$$$$$$$$$$$$$$$$$$$$$$$$  $$            ",
"  ++++++++@@%%%%  $$$$$$$$$$$$$$$$$$$$$$$$$$$$..  ..            ",
"  ++++++++@@%%%%  $$$$$$$$$$$$$$$$$$$$$$$$$$$$..  ..            ",
"  ++++++++@@%%%%  $$$$$$$$$$$$$$$$$$$$$$$$$$$$..                ",
"  ++++++++@@%%%%  $$$$$$$$$$$$$$$$$$$$$$$$$$$$..                ",
"  ++++++++@@%%$$  $$$$$$$$$$$$$$$$$$$$$$$$$$....                ",
"  ++++++++@@%%$$  $$$$$$$$$$$$$$$$$$$$$$$$$$....                ",
"  ++++++++++%%$$  $$$$$$$$$$$$$$$$$$$$$$$$$$....                ",
"  ++++++++++%%$$  $$$$$$$$$$$$$$$$$$$$$$$$$$....                ",
"                                                                ",
"                                                                "};
