/* XPM */
static char * fence_corner3_xpm[] = {
"64 64 5 1",
" 	c #333941",
".	c #6D758D",
"+	c #4A5462",
"@	c #06050D",
"#	c #1F242B",
"  ........++  @@@            ##@@##  ++    ++       ####@@@@@@@@",
"  ........++  @@@            ##@@##  ++    ++       ####@@@@@@@@",
"..........++  @@@              @@                   ####@@@@@@@@",
"..........++  @@@              @@                   ####@@@@@@@@",
"........++++  @@@              @@++               ######@@@@@@@@",
"........++++  @@@              @@++               ######@@@@@@@@",
"++++++++++++  @@@              @@++               ######@@@@@@@@",
"++++++++++++  @@@              @@++               ######@@@@@@@@",
"++++++++++++##@@@              @@                 ####@@@@@@@@@@",
"++++++++++++##@@@              @@                 ####@@@@@@@@@@",
"++++++++++  ##@@@              @@##               ##@@@@@@@@@@@@",
"++++++++++  ##@@@              @@##               ##@@@@@@@@@@@@",
"        ####@@@@@          ####@@  ##             ##@@@@@@@@@@@@",
"        ####@@@@@          ####@@  ##             ##@@@@@@@@@@@@",
"@@@@@@@@@@@@@@@@@@@@@@@@@@@@@@@@@@@@@@@@@@@@@@@@@@@@@@@@@@@@@@@@",
"@@@@@@@@@@@@@@@@@@@@@@@@@@@@@@@@@@@@@@@@@@@@@@@@@@@@@@@@@@@@@@@@",
"@@@@@@@@@@@@@@@@@@@@@@@@@@@@@@@@@@@@@@@@@@@@@@@@@@@@@@@@@@@@@@@@",
"++++++        @@@##  ++++++++                  @@@@@########@@##",
"++++++        @@@##  ++++++++                  @@@@@########@@##",
"              @@@##                        ####@@@####@@@@@@@@@@",
"              @@@##                        ####@@@####@@@@@@@@@@",
"              @@@++                        ####@@@  ##@@@@@@@@@@",
"              @@@++                        ####@@@  ##@@@@@@@@@@",
"              @@@++                        ####@@@  ##@@@@@@@@@@",
"              @@@++                        ####@@@  ##@@@@@@@@@@",
"              @@@                          ####@@@##@@@@@@@@@@@@",
"              @@@                          ####@@@##@@@@@@@@@@@@",
"            ##@@@                          ##@@@@@##@@@@@@@@@@@@",
"            ##@@@                          ##@@@@@##@@@@@@@@@@@@",
"          ####@@@####                      @@@@@@@@@@@@@@@@@@@@@",
"          ####@@@####                      @@@@@@@@@@@@@@@@@@@@@",
"@@@@@@@@@@@@@@@@@@@@@@@@@@@@@@@@@@@@@@@@@@@@@@@@@@@@@@@@@@@@@@@@",
"@@@@@@@@@@@@@@@@@@@@@@@@@@@@@@@@@@@@@@@@@@@@@@@@@@@@@@@@@@@@@@@@",
"##  ++++++++++               ##@@##  ++++++  ##     ##@@@@@@@@@@",
"##  ++++++++++               ##@@##  ++++++  ##     ##@@@@@@@@@@",
"                               @@++          #######@@@@@@@@@@@@",
"                               @@++          #######@@@@@@@@@@@@",
"++                             @@++          #######@@@@@@@@@@@@",
"++                             @@++          #######@@@@@@@@@@@@",
"++                             @@            #######@@@@@@@@@@@@",
"++                             @@            #######@@@@@@@@@@@@",
"                               @@            #########@@@@@@@@@@",
"                               @@            #########@@@@@@@@@@",
"##                             @@##          #########@@@@@@@@@@",
"##                             @@##          #########@@@@@@@@@@",
"####                       ####@@####        #########@@@@@@@@@@",
"####                       ####@@####        #########@@@@@@@@@@",
"@@@@@@@@@@@@@@@@@@@@@@@@@@@@@@@@@@@@@@@@@@@@@@@@@@@@@@@@@@@@@@@@",
"@@@@@@@@@@@@@@@@@@@@@@@@@@@@@@@@@@@@@@@@@@@@@@@@@@@@@@@@@@@@@@@@",
"@@@@@@@@@@@@@@@@@@@@@@@@@@@@@@@@@@@@@@@@@@@@@@@@@@@@@@@@@@@@@@@@",
"######@@######@@@####  ++++++++    ############@@@##@@####@@@@@@",
"######@@######@@@####  ++++++++    ############@@@##@@####@@@@@@",
"##########  ##@@@++            ################@@@##@@@@@@@@@@@@",
"##########  ##@@@++            ################@@@##@@@@@@@@@@@@",
"##############@@@  ########  ##################@@@##@@@@@@@@@@@@",
"##############@@@  ########  ##################@@@##@@@@@@@@@@@@",
"@@@@@@@@@@@@@@@@@@@@@@@@@##################@@@@@@@##@@@@@@@@@@@@",
"@@@@@@@@@@@@@@@@@@@@@@@@@##################@@@@@@@##@@@@@@@@@@@@",
"@@@@@@@@@@@@@@@@@@@@@@@@@@@@@@@@@@@@@@@@@@@@@@@@@@@@@@@@@@@@@@@@",
"@@@@@@@@@@@@@@@@@@@@@@@@@@@@@@@@@@@@@@@@@@@@@@@@@@@@@@@@@@@@@@@@",
"@@@@@@@@@@@@@@@@@@@@@@@@@@@@@@@@@@@@@@@@@@@@@@@@@@@@@@@@@@@@@@@@",
"@@@@@@@@@@@@@@@@@@@@@@@@@@@@@@@@@@@@@@@@@@@@@@@@@@@@@@@@@@@@@@@@",
"@@@@@@@@@@@@@@@@@@@@@@@@@@@@@@@@@@@@@@@@@@@@@@@@@@@@@@@@@@@@@@@@",
"@@@@@@@@@@@@@@@@@@@@@@@@@@@@@@@@@@@@@@@@@@@@@@@@@@@@@@@@@@@@@@@@"};
