/* XPM */
static char * fence_corner2_xpm[] = {
"64 64 4 1",
" 	c #06050D",
".	c #1F242B",
"+	c #333941",
"@	c #4A5462",
"                                                                ",
"                                                                ",
"    ........                         ........                   ",
"    ........                         ........                   ",
"..                                                              ",
"..                                                              ",
"++....                           ++..                           ",
"++....                           ++..                           ",
"++..........               ....  ++..                           ",
"++..........               ....  ++..                           ",
"...............................  ...................            ",
"...............................  ...................            ",
"++.............................    .................            ",
"++.............................    .................            ",
"....++++.............++++++....  ....++........+++++            ",
"....++++.............++++++....  ....++........+++++            ",
"                                                                ",
"                                                                ",
"@@@@@@++++++++   ..++@@@@@@@@++++++++++++++++++     ........  ..",
"@@@@@@++++++++   ..++@@@@@@@@++++++++++++++++++     ........  ..",
"++++++++++++++   ..++++++++++++++++++++++++....   ....          ",
"++++++++++++++   ..++++++++++++++++++++++++....   ....          ",
"++++++++++++++   @@++++++++++++++++++++++++....   ++..          ",
"++++++++++++++   @@++++++++++++++++++++++++....   ++..          ",
"++++++++++++++   @@++++++++++++++++++++++++....   ++..          ",
"++++++++++++++   @@++++++++++++++++++++++++....   ++..          ",
"++++++++++++++   ++++++++++++++++++++++++++....   ..            ",
"++++++++++++++   ++++++++++++++++++++++++++....   ..            ",
"++++++++++++..   ++++++++++++++++++++++++++..     ..            ",
"++++++++++++..   ++++++++++++++++++++++++++..     ..            ",
"++++++++++....   ....++++++++++++++++++++++                     ",
"++++++++++....   ....++++++++++++++++++++++                     ",
"                                                                ",
"                                                                ",
"++++@@@@@@@@@@+++++++++++++++..  ..++@@@@@@++..+++++..          ",
"++++@@@@@@@@@@+++++++++++++++..  ..++@@@@@@++..+++++..          ",
"+++++++++++++++++++++++++++++++  @@++++++++++.......            ",
"+++++++++++++++++++++++++++++++  @@++++++++++.......            ",
"@@+++++++++++++++++++++++++++++  @@++++++++++.......            ",
"@@+++++++++++++++++++++++++++++  @@++++++++++.......            ",
"@@+++++++++++++++++++++++++++++  ++++++++++++.......            ",
"@@+++++++++++++++++++++++++++++  ++++++++++++.......            ",
"@@++++++++@@+++++++++++++++++++  ++++++++++++.........          ",
"@@++++++++@@+++++++++++++++++++  ++++++++++++.........          ",
"+++++++++++++++++++++++++++++++  ..++++++++++.........          ",
"+++++++++++++++++++++++++++++++  ..++++++++++.........          ",
"++..+++++++++++++++++++++++....  ....++++++++.........          ",
"++..+++++++++++++++++++++++....  ....++++++++.........          ",
"                                                                ",
"                                                                ",
"++++++........   ....++@@@@@@@@++++++++++++....   ..  ....      ",
"++++++........   ....++@@@@@@@@++++++++++++....   ..  ....      ",
"++@@@@@@@@@@..   @@++++++++++++++++++++++++++++   ..            ",
"++@@@@@@@@@@..   @@++++++++++++++++++++++++++++   ..            ",
"++@@@@@@@@@@++   @@++++++++++++++++++++++++++++   ++            ",
"++@@@@@@@@@@++   @@++++++++++++++++++++++++++++   ++            ",
"++@@@@@@@@@@++   ++++++++++++++++++++++++++++..   ..            ",
"++@@@@@@@@@@++   ++++++++++++++++++++++++++++..   ..            ",
"++@@@@@@@@@@++   ++++++++++++++++++++++++++++..                 ",
"++@@@@@@@@@@++   ++++++++++++++++++++++++++++..                 ",
"@@@@@@@@@@@@++   ..++++++++++++++++++++++++....                 ",
"@@@@@@@@@@@@++   ..++++++++++++++++++++++++....                 ",
"@@@@@@@@++++..   ....++++++++++++++++++++++....                 ",
"@@@@@@@@++++..   ....++++++++++++++++++++++....                 "};
