/* XPM */
static char * fence_line_bottom_xpm[] = {
"64 64 7 1",
" 	c #06050D",
".	c #1F242B",
"+	c #C7DCD0",
"@	c #6D758D",
"#	c #9BABB2",
"$	c #4A5462",
"%	c #333941",
"                                                                ",
"                                                                ",
"..++@@@@@@@@@@@@@@@@@@@@@@@@@@@@@@@@@@@@@@@@@@@@@@@@@@@@@@@@++  ",
"..++@@@@@@@@@@@@@@@@@@@@@@@@@@@@@@@@@@@@@@@@@@@@@@@@@@@@@@@@++  ",
"..++@@@@@@@@@@@@@@@@@@@@@@@@@@@@@@@@@@@@@@@@@@@@@@@@@@@@@@@@++  ",
"..++@@@@@@@@@@@@@@@@@@@@@@@@@@@@@@@@@@@@@@@@@@@@@@@@@@@@@@@@++  ",
"..####+++++++++################+++++++++++++++####++++++++####  ",
"..####+++++++++################+++++++++++++++####++++++++####  ",
"..##@@@@@@@@@@@@@@@@@@@@@@@@@@@@@@@@@@@@@@@@@@@@@@@@@@@@@@@@##  ",
"..##@@@@@@@@@@@@@@@@@@@@@@@@@@@@@@@@@@@@@@@@@@@@@@@@@@@@@@@@##  ",
"..$$@@@@@@@@@@@@@@@@@@@@@@@@@@@@@@@@@@@@@@@@@@@@@@@@@@@@@@@@$$  ",
"..$$@@@@@@@@@@@@@@@@@@@@@@@@@@@@@@@@@@@@@@@@@@@@@@@@@@@@@@@@$$  ",
"  %%$$$$$$$$$$$$$$$$$$$$$$$$$$$$$$$$$$$$$$$$$$$$$$$$$$$$$$$$%%  ",
"  %%$$$$$$$$$$$$$$$$$$$$$$$$$$$$$$$$$$$$$$$$$$$$$$$$$$$$$$$$%%  ",
"  %%%%$$$$$$$$$$$$$$$$$$$$$$$$$$$$$$$$$$$$$$$$$$$$$$$$$$%%%%%%  ",
"  %%%%$$$$$$$$$$$$$$$$$$$$$$$$$$$$$$$$$$$$$$$$$$$$$$$$$$%%%%%%  ",
"                                                                ",
"                                                                ",
"%%%%%%%%%%%%%%%  ..%%$$$$$$$$%%%%%%%%%%%%%%%%%  ..%%$$$$$$%%$$$$",
"%%%%%%%%%%%%%%%  ..%%$$$$$$$$%%%%%%%%%%%%%%%%%  ..%%$$$$$$%%$$$$",
"%%%%%%%%%%%%%%%  ..%%%%%%%%%%%%%%%%%%%%%%%%%%%  %%%%%%%%%%%%%%%%",
"%%%%%%%%%%%%%%%  ..%%%%%%%%%%%%%%%%%%%%%%%%%%%  %%%%%%%%%%%%%%%%",
"%%%%%%%%%%%%%%%  $$%%%%%%%%%%%%%%%%%%%%%%%%%%%  %%%%%%%%%%%%%%%%",
"%%%%%%%%%%%%%%%  $$%%%%%%%%%%%%%%%%%%%%%%%%%%%  %%%%%%%%%%%%%%%%",
"%%%%%%%%%%%%%%%  $$%%%%%%%%%%%%%%%%%%%%%%%%%%%  %%%%%%%%%%%%%%%%",
"%%%%%%%%%%%%%%%  $$%%%%%%%%%%%%%%%%%%%%%%%%%%%  %%%%%%%%%%%%%%%%",
"%%%%%%%%%%%%%%%  %%%%%%%%%%%%%%%%%%%%%%%%%%%%%  %%%%%%%%%%%%%%%%",
"%%%%%%%%%%%%%%%  %%%%%%%%%%%%%%%%%%%%%%%%%%%%%  %%%%%%%%%%%%%%%%",
"%%%%%%%%%%%%%%.  %%%%%%%%%%%%%%%%%%%%%%%%%%%%.  %%%%%%%%%%%%%%%%",
"%%%%%%%%%%%%%%.  %%%%%%%%%%%%%%%%%%%%%%%%%%%%.  %%%%%%%%%%%%%%%%",
"%%%%%%%%%%%%...  ....%%%%%%%%%%%%%%%%%%%%%%...  ..%%%%%%%%%%%%%%",
"%%%%%%%%%%%%...  ....%%%%%%%%%%%%%%%%%%%%%%...  ..%%%%%%%%%%%%%%",
"                                                                ",
"                                                                ",
"  ..%%$$$$$$$$$%%%%%%%%%%%%%%..  ..%%$$$$$$$$%$$$$$$%%%%%%....  ",
"  ..%%$$$$$$$$$%%%%%%%%%%%%%%..  ..%%$$$$$$$$%$$$$$$%%%%%%....  ",
"  %%%%%%%%%%%%%%%%%%%%%%%%%%%%%  $$%%%%%%%%%%%%%%%%%%%%%%%%%..  ",
"  %%%%%%%%%%%%%%%%%%%%%%%%%%%%%  $$%%%%%%%%%%%%%%%%%%%%%%%%%..  ",
"  $$%%%%%%%%%%%%%%%%%%%%%%%%%%%  $$%%%%%%%%%%%%%%%%%%%%%%%%%%%  ",
"  $$%%%%%%%%%%%%%%%%%%%%%%%%%%%  $$%%%%%%%%%%%%%%%%%%%%%%%%%%%  ",
"  $$%%%%%%%%%%%%%%%%%%%%%%%%%%%  %%%%%%%%%%%%%%%%%%%%%%%%%%%%%  ",
"  $$%%%%%%%%%%%%%%%%%%%%%%%%%%%  %%%%%%%%%%%%%%%%%%%%%%%%%%%%%  ",
"  %%%%%%%%%%%%%%%%%%%%%%%%%%%%%  %%%%%%%%%%%%%%%%%%%%%%%%%%%%%  ",
"  %%%%%%%%%%%%%%%%%%%%%%%%%%%%%  %%%%%%%%%%%%%%%%%%%%%%%%%%%%%  ",
"  ..%%%%%%%%%%%%%%%%%%%%%%%%%%%  ..%%%%%%%%%%%%%%%%%%%%%%%%%%%  ",
"  ..%%%%%%%%%%%%%%%%%%%%%%%%%%%  ..%%%%%%%%%%%%%%%%%%%%%%%%%%%  ",
"  ....%%%%%%%%%%%%%%%%%%%%%....  ....%%%%%%%%%%%%%%%%%%%%%....  ",
"  ....%%%%%%%%%%%%%%%%%%%%%....  ....%%%%%%%%%%%%%%%%%%%%%....  ",
"                                                                ",
"                                                                ",
"%%......  .....  ....%%$$$$$$$$%%%%........     ..%%$$$$%%%%%%%%",
"%%......  .....  ....%%$$$$$$$$%%%%........     ..%%$$$$%%%%%%%%",
"............%%.  $$%%%%%%%%%%%%...............  ......%%%%%%%%..",
"............%%.  $$%%%%%%%%%%%%...............  ......%%%%%%%%..",
"...............  %%........%%.................  %%......%%%%....",
"...............  %%........%%.................  %%......%%%%....",
"..                       .....................  %%..............",
"..                       .....................  %%..............",
"                                             .            ....  ",
"                                             .            ....  ",
"                                                                ",
"                                                                ",
"                                                                ",
"                                                                "};
