/* XPM */
static char * flat_xpm[] = {
"64 64 5 1",
" 	c #06050D",
".	c #333941",
"+	c #4A5462",
"@	c #6D758D",
"#	c #9BABB2",
"                                                                ",
"                                                                ",
"  ....++++....++++++@@@@@@@@@@@@@@@@@@@@@@++++..  ++@@@@++....  ",
"  ....++++....++++++@@@@@@@@@@@@@@@@@@@@@@++++..  ++@@@@++....  ",
"  ..##########@@@@@@########@@@@@@@@@@@@@@@@@@@@..@@@@@@@@@@++  ",
"  ..##########@@@@@@########@@@@@@@@@@@@@@@@@@@@..@@@@@@@@@@++  ",
"  ++##@@@@@@@@@@@@@@@@@@@@@@@@@@@@@@@@@@@@@@@@@@..++@@@@@@@@++  ",
"  ++##@@@@@@@@@@@@@@@@@@@@@@@@@@@@@@@@@@@@@@@@@@..++@@@@@@@@++  ",
"  ++##@@@@@@@@@@@@@@@@@@@@@@@@@@@@@@@@@@@@@@@@@@..++@@@@@@++..  ",
"  ++##@@@@@@@@@@@@@@@@@@@@@@@@@@@@@@@@@@@@@@@@@@..++@@@@@@++..  ",
"  ++##@@@@@@@@@@@@@@@@@@@@@@@@@@@@@@@@@@@@@@@@@@@@..@@@@++..    ",
"  ++##@@@@@@@@@@@@@@@@@@@@@@@@@@@@@@@@@@@@@@@@@@@@..@@@@++..    ",
"  ++@@@@@@@@@@@@@@@@@@@@@@@@@@@@@@@@@@@@@@@@@@@@@@..++@@..  @@  ",
"  ++@@@@@@@@@@@@@@@@@@@@@@@@@@@@@@@@@@@@@@@@@@@@@@..++@@..  @@  ",
"  ++@@@@@@@@@@@@@@@@@@@@@@@@@@@@@@@@@@@@@@@@@@@@@@##..++..##++  ",
"  ++@@@@@@@@@@@@@@@@@@@@@@@@@@@@@@@@@@@@@@@@@@@@@@##..++..##++  ",
"  @@@@@@@@@@@@@@@@@@@@@@@@@@@@@@@@@@@@@@@@@@@@@@@@##....##@@++  ",
"  @@@@@@@@@@@@@@@@@@@@@@@@@@@@@@@@@@@@@@@@@@@@@@@@##....##@@++  ",
"  @@@@@@@@@@@@@@@@@@@@@@@@@@@@@@@@@@@@@@@@@@@@@@@@@@####@@@@@@  ",
"  @@@@@@@@@@@@@@@@@@@@@@@@@@@@@@@@@@@@@@@@@@@@@@@@@@####@@@@@@  ",
"  @@@@@@@@@@@@@@@@@@@@@@@@@@@@@@@@@@@@@@@@@@@@@@@@@@@@@@@@@@@@  ",
"  @@@@@@@@@@@@@@@@@@@@@@@@@@@@@@@@@@@@@@@@@@@@@@@@@@@@@@@@@@@@  ",
"  ..@@@@@@@@@@@@@@@@@@@@@@@@@@@@@@@@@@@@@@@@@@@@@@@@@@@@@@@@@@  ",
"  ..@@@@@@@@@@@@@@@@@@@@@@@@@@@@@@@@@@@@@@@@@@@@@@@@@@@@@@@@@@  ",
"  ....@@@@@@@@@@@@@@@@@@@@@@@@@@@@@@@@@@@@@@@@@@++@@@@@@@@@@++  ",
"  ....@@@@@@@@@@@@@@@@@@@@@@@@@@@@@@@@@@@@@@@@@@++@@@@@@@@@@++  ",
"  ++....@@@@@@@@@@@@@@@@@@@@@@@@@@@@@@@@@@@@@@@@++++@@@@@@@@++  ",
"  ++....@@@@@@@@@@@@@@@@@@@@@@@@@@@@@@@@@@@@@@@@++++@@@@@@@@++  ",
"  ++++++..@@@@@@@@@@@@@@@@@@@@@@@@@@@@@@@@@@++@@@@@@@@@@@@@@..  ",
"  ++++++..@@@@@@@@@@@@@@@@@@@@@@@@@@@@@@@@@@++@@@@@@@@@@@@@@..  ",
"  ++++++@@@@@@@@@@@@@@@@@@@@@@@@@@@@@@@@@@@@++@@@@@@@@@@@@++..  ",
"  ++++++@@@@@@@@@@@@@@@@@@@@@@@@@@@@@@@@@@@@++@@@@@@@@@@@@++..  ",
"  ++++@@@@@@@@@@@@@@@@@@@@@@@@@@@@@@@@@@@@++@@@@@@@@@@@@@@++..  ",
"  ++++@@@@@@@@@@@@@@@@@@@@@@@@@@@@@@@@@@@@++@@@@@@@@@@@@@@++..  ",
"  @@@@@@@@@@@@@@@@@@@@@@@@@@@@@@@@@@@@@@@@++@@@@@@++@@@@@@##..  ",
"  @@@@@@@@@@@@@@@@@@@@@@@@@@@@@@@@@@@@@@@@++@@@@@@++@@@@@@##..  ",
"  @@@@@@@@@@@@@@@@@@@@@@@@@@@@@@@@@@@@@@@@@@@@@@++..@@@@@@@@..  ",
"  @@@@@@@@@@@@@@@@@@@@@@@@@@@@@@@@@@@@@@@@@@@@@@++..@@@@@@@@..  ",
"  ++++++@@@@@@@@@@@@@@@@@@@@@@@@@@@@@@@@@@@@++....++@@@@@@@@++  ",
"  ++++++@@@@@@@@@@@@@@@@@@@@@@@@@@@@@@@@@@@@++....++@@@@@@@@++  ",
"  ++######@@@@@@@@@@@@@@@@@@@@@@@@@@@@@@@@......++@@@@@@@@@@##  ",
"  ++######@@@@@@@@@@@@@@@@@@@@@@@@@@@@@@@@......++@@@@@@@@@@##  ",
"  @@@@@@@@@@@@@@@@@@@@@@@@@@@@@@@@@@@@@@@@....++++@@@@@@@@@@@@  ",
"  @@@@@@@@@@@@@@@@@@@@@@@@@@@@@@@@@@@@@@@@....++++@@@@@@@@@@@@  ",
"  @@@@@@@@@@@@@@@@@@@@@@@@@@@@@@@@@@@@@@@@..++++++@@@@@@@@@@@@  ",
"  @@@@@@@@@@@@@@@@@@@@@@@@@@@@@@@@@@@@@@@@..++++++@@@@@@@@@@@@  ",
"  @@@@@@@@++@@@@@@@@@@@@@@@@@@@@@@@@@@@@@@++++@@@@@@@@@@@@@@@@  ",
"  @@@@@@@@++@@@@@@@@@@@@@@@@@@@@@@@@@@@@@@++++@@@@@@@@@@@@@@@@  ",
"  @@@@@@++++@@@@@@@@@@@@@@@@@@@@@@@@@@@@@@++@@@@@@@@@@@@@@@@@@  ",
"  @@@@@@++++@@@@@@@@@@@@@@@@@@@@@@@@@@@@@@++@@@@@@@@@@@@@@@@@@  ",
"  @@@@@@@@++@@@@@@@@@@@@@@@@@@@@@@@@@@@@@@@@@@@@@@@@@@@@@@@@@@  ",
"  @@@@@@@@++@@@@@@@@@@@@@@@@@@@@@@@@@@@@@@@@@@@@@@@@@@@@@@@@@@  ",
"  @@@@@@@@@@@@@@++@@@@@@@@@@@@@@@@@@@@@@@@@@@@@@@@@@@@@@@@@@++  ",
"  @@@@@@@@@@@@@@++@@@@@@@@@@@@@@@@@@@@@@@@@@@@@@@@@@@@@@@@@@++  ",
"  ++@@@@@@@@@@++++@@@@@@@@@@@@@@@@@@@@@@@@@@@@@@@@@@@@@@@@@@++  ",
"  ++@@@@@@@@@@++++@@@@@@@@@@@@@@@@@@@@@@@@@@@@@@@@@@@@@@@@@@++  ",
"  ++@@@@@@@@@@++++@@@@@@@@@@@@@@@@@@@@@@@@++@@@@@@@@@@@@@@++++  ",
"  ++@@@@@@@@@@++++@@@@@@@@@@@@@@@@@@@@@@@@++@@@@@@@@@@@@@@++++  ",
"  ..++@@@@@@@@@@@@@@@@@@@@@@@@@@@@@@@@@@##++@@@@@@@@@@@@++....  ",
"  ..++@@@@@@@@@@@@@@@@@@@@@@@@@@@@@@@@@@##++@@@@@@@@@@@@++....  ",
"  ....++++++++@@@@++@@@@@@@@@@@@++++++++....++++@@@@@@++++....  ",
"  ....++++++++@@@@++@@@@@@@@@@@@++++++++....++++@@@@@@++++....  ",
"                                                                ",
"                                                                "};
