/* XPM */
static char * monster_xpm[] = {
"64 64 9 1",
" 	c #06050D",
".	c #333941",
"+	c #4A5462",
"@	c #6D758D",
"#	c #9BABB2",
"$	c #000000",
"%	c #FFFFFF",
"&	c #2D2D2D",
"*	c #1B1B1B",
"                                                                ",
"                                                                ",
"  ....++++....++++++@@@@@@@@@@@@@@@@@@@@@@++++..  ++@@@@++....  ",
"  ....++++....++++++@@@@@@@@@@@@@@@@@@@@@@++++..  ++@@@@++....  ",
"  ..##########@@@@@@########@$$$$$$$$$$@@@@@@@@@..@@@@@@@@@@++  ",
"  ..##########@@@@@@########@$$$$$$$$$$@@@@@@@@@..@@@@@@@@@@++  ",
"  ++##@@@@@@@@@@@@@@@@$$$$$$$$$$$$$$$$$$$$$$$$@@..++@@@@@@@@++  ",
"  ++##@@@@@@@@@@@@@@@@$$$$$$$$$$$$$$$$$$$$$$$$@@..++@@@@@@@@++  ",
"  ++##@@@@@@@@@@@@$$$$$$$$$$$$$$$$$$$$$$$$$$$$$$$$$+@@@@@@++..  ",
"  ++##@@@@@@@@@@@@$$$$$$$$$$$$$$$$$$$$$$$$$$$$$$$$$+@@@@@@++..  ",
"  ++##@@@@@@@$$$$$$$$$$$$$$$$$$$$$$$$$$$$$$$$$$$$$$$$$$$++..    ",
"  ++##@@@@@@@$$$$$$$$$$$$$$$$$$$$$$$$$$$$$$$$$$$$$$$$$$$++..    ",
"  ++@@@@@@@@@$$$$$$$$$$$$$$$$$$$$$$$$$$$$$$$$$$$$$$$$$$$..  @@  ",
"  ++@@@@@@@@@@@@@@@@@@@@@@@$$$$$$$$$%%%$$@@@@@@@@@..++@@..  @@  ",
"  ++@@@@@@@@@@@@@@@@@@@@@@@$$$$$$$$$%%%$$@@@@@@@@@##..++..##++  ",
"  ++@@@@@@@@@@@@@@@@@@@@@@@$$$$$$$$$%%%$$@@@@@@@@@##..++..##++  ",
"  @@@@@@@@@@@@@@@@@@@@@@@@@$$$$$$$$$%%%$$@@@@@@@@@##....##@@++  ",
"  @@@@@@@@@@@@@@@@@@@@@@@@@$$$$$$$$$$$$$$@@@@@@@@@##....##@@++  ",
"  @@@@@@@@@@@@@@@@@@@@@@@@@$$$$$$$$$$$$@@@@@@@@@@@@@####@@@@@@  ",
"  @@@@@@@@@@@@@@@@@@@@@@@@@$$$$$$$$$$$$@@@@@@@@@@@@@####@@@@@@  ",
"  @@@@@@@@@@@@@@@@@@@@@@@@@$$$$$$$$$$$$@@@@@@@@@@@@@@@@@@@@@@@  ",
"  @@@@@@@@@@@@@@@@@@@@@@@&&&&&&&$$$$$$$@@@@@@@@@@@@@@@@@@@@@@@  ",
"  ..@@@@@@@@@@@@@@@@@@@@@&&&&&&&$$$$$$$@@@@@@@@@@@@@@@@@@@@@@@  ",
"  ..@@@@@@@@@@@@@@@@@@&&&&&&&&&&$$$$$$$&&@@@@@@@@@@@@@@@@@@@@@  ",
"  ....@@@@@@@@@@@@@@@@&&&&&&&&&&$$$$$$$&&@@@@@@@++@@@@@@@@@@++  ",
"  ....@@@@@@@@@@@@@@@@&&&&&&&&&&&&&&&&&&&@@@@@@@++@@@@@@@@@@++  ",
"  ++....@@@@@@@@@@@@@@&&&&&&&&&&&&&&&&&&&@@@@@@@++++@@@@@@@@++  ",
"  ++....@@@@@@@@@@@@@@&&&&&&&&&&&&&&&&&&&@@@@@@@++++@@@@@@@@++  ",
"  ++++++..@@@@@@@@@@&&&&&&&&&&&&&&&&&&&&&@@@++@@@@@@@@@@@@@@..  ",
"  ++++++..@@@@@@@@@@&&&&&&&&&&&&&&&&&&&&&@@@++@@@@@@@@@@@@@@..  ",
"  ++++++@@@@@@@@@@@@&&&&&&&&&&&&&&&&$$$$$&&@++@@@@@@@@@@@@++..  ",
"  ++++++@@@@@@@@@@@@&&&&&&&&&&&&&&&&$$$$$&&@++@@@@@@@@@@@@++..  ",
"  ++++@@@@@@@@@@@@@@&&&&&&&&&&&&&&&&$$$$$&&+@@@@@@@@@@@@@@++..  ",
"  ++++@@@@@@@@@@@@&&&&&&&&&&&&&&&&$$$$$$$&&+@@********@@@@++..  ",
"  @@@@@@@@@@@@@@@@&&&&&&&&&&&&&&&&$$$$$$$&&+@@********@@@@##..  ",
"  @@@@@@@@@@@@@@@@&&&&&&&&&&&&&&&&$$$$$$$&&+@@********@@@@##..  ",
"  @@@@@@@@@@@@@@@@&&&&&&&&&&&&&&&&$$$$$$$$$&&&********@@@@@@..  ",
"  @@@@@@@@@@@@@@@@&&&&&&&&&&&&&&&&$$$$$$$$$&&&********@@@@@@..  ",
"  ++++++@@@@@@@@@@&&&&&&&&&&&&&&&&$$$$$$$$$&&&**..++@@@@@@@@++  ",
"  ++++++@@@@@@@@@@&&&&&&&&&&&&&&&&$$$$$$$$$&&&**..++@@@@@@@@++  ",
"  ++######@@@@@@@@&&&&&&&&&&&&&&$$$$$$$$$$$&&&..++@@@@@@@@@@##  ",
"  ++######@@@@@@@@&&&&&&&&&&&&&&$$$$$$$$$$$&&&..++@@@@@@@@@@##  ",
"  @@@@@@@@@@@@@@@@&&&&&&&&&&&&&&$$$$$$$$$$$&&&++++@@@@@@@@@@@@  ",
"  @@@@@@@@@@@@@&&&&&&&&&&&&&&&&&$$$$$$$$$$$&&&++++@@@@@@@@@@@@  ",
"  @@@@@@%%%%%%%&&&&&&&&&&&&&&&&&$$$$$$$$$$$$$$&&++@@@@@@@@@@@@  ",
"  @@@@@@%%%%%%%&&&&&&&&&&&&&&&&&$$$$$$$$$$$$$$&&++@@@@@@@@@@@@  ",
"  @@%%%%%%%%%%%&&&&&&&&&&&&&&&&&$$$$$$$$$$$$$$&&@@@@@@@@@@@@@@  ",
"  @@%%%%%%%%%%%&&&&&&&&&&&&&&&&&$$$$$$$$$$$$$$&&@@@@@@@@@@@@@@  ",
"  @@%%%%%%%%%%%&&&&&&&&&&&&&&&&&$$$$$$$$$$$$$$&&@@@@@@@@@@@@@@  ",
"  @@%%%%%%%+@@@&&&&&&&&&&&&&&$$$$$$$$$$$$$$$$$&&@@@@@@@@@@@@@@  ",
"  @@%%%%%%%+@@@&&&&&&&&&&&&&&$$$$$$$$$$$$$$$$$&&@@@@@@@@@@@@@@  ",
"  @@@@@@@@++@@@&&&&&&&&&&&&&&$$$$$$$$$$$$$$$$$&&@@@@@@@@@@@@@@  ",
"  @@@@@@@@@@@@@&&&&&&&&&&&&&&$$$$$$$$$$$$$$$$$&&@@@@@@@@@@@@++  ",
"  @@@@@@@@@@@@@&&&&&&&&&&&&&&@@@@@@@$$$$$$$&&&&&@@@@@@@@@@@@++  ",
"  ++@@@@@@@@@@+&&&&&&&&&&&&&&@@@@@@@$$$$$$$&&&&&@@@@@@@@@@@@++  ",
"  ++@@@@@@@@@@+&&&&&&&&&&&&&&@@@@@@@$$$$$$$&&&&&@@@@@@@@@@@@++  ",
"  ++@@@@@@@@@@++++&&&&&&&&&@@@@@@@@@@@@$$$$+@@@@@@@@@@@@@@++++  ",
"  ++@@@@@@@@@@++++@@$$@@@@@@@@@@@@@@@@@@@$$+@@@@@@@@@@@@@@++++  ",
"  ..++@@@@@@@@@@@@@@$$@@@@@@@@@@@@@@@@@@#$$+@@@@@@@@@@@@++....  ",
"  ..++@@@@@@@@@@@@@@$$@@@@@@@@@@@@@@@@@@#$$+@@@@@@@@@@@@++....  ",
"  ....++++++++@@@@++$$@@@@@@@@@@++++++++.$$.++++@@@@@@++++....  ",
"  ....++++++++@@@@++@@@@@@@@@@@@++++++++....++++@@@@@@++++....  ",
"                                                                ",
"                                                                "};
