/* XPM */
static char * perso_xpm[] = {
"64 64 18 1",
" 	c #06050D",
".	c #333941",
"+	c #4A5462",
"@	c #6D758D",
"#	c #9BABB2",
"$	c #000000",
"%	c #AA2000",
"&	c #711804",
"*	c #5B5B5B",
"=	c #959595",
"-	c #4A4A4A",
";	c #2C2A2A",
">	c #BBBBBB",
",	c #7D4C1D",
"'	c #B5B5B5",
")	c #573616",
"!	c #AC6723",
"~	c #442B13",
"                                                                ",
"                                                                ",
"  ....++++....++++++@@@@@@@@@@@@@@@@@@@@@@++++..  ++@@@@++....  ",
"  ....++++....++++++@@@@@@@@@@@@@@@@@@@@@@++++..  ++@@@@++....  ",
"  ..##########@@@@@@########@@@@@@@@@@@@@@@@@@@@..@@@@@@@@@@++  ",
"  ..##########@@@@@@$$$$$$$$$@@@@@@@@@@@@@@@@@@@..@@@@@@@@@@++  ",
"  ++##@@@@@@@$$$@@@$%%%%%%%%%$@@@@@@@@@@@@@@@@@@..++@@@@@@@@++  ",
"  ++##@@@@@@@$$$@@@$%%%%%%%%%$@@@@@@@@@@@@@@@@@@..++@@@@@@@@++  ",
"  ++##@@@@@@$%%%$$$$%%%%&&&&&$$$$$$$$$@@@@@@@@@@..++@@@@@@++..  ",
"  ++##@@@@@@$%%%$$$$%%%%&&&&&$$$$$$$$$@@@@@@@@@@..++@@@@@@++..  ",
"  ++##@@@@@@$&&&&%%%%%$$********==*******$@@@@@@@@..@@@@++..    ",
"  ++##@@@@@@$&&&&%%%%%$$********==*******$@@@@@@@@..@@@@++..    ",
"  ++@@@@@@@@$&&&&%%%%%$$********==*******$@@@@@@@@..++@@..  @@  ",
"  ++@@@@@@@@@$$$$$$%%%$$******==----------$$$@@@@@..++@@..  @@  ",
"  ++@@@@@@@@@@@@@$$%%%$$*****-------------$$$@@@@@##..++..##++  ",
"  ++@@@@@@@@@@@@@$$%%%$$*****-------------$$$@@@@@##..++..##++  ",
"  @@@@@@@@@@@@@@$&&&&&$$----------$$$-$$--$$$@@@@@##....##@@++  ",
"  @@@@@@@@@@@@@@$&&&&&$$----------$$$-$$--$$$@@@@@##....##@@++  ",
"  @@@@@@@@@@@@@@$&&&&&$$----------$$$-$$--$$$@@@@@@@####@@@@@@  ",
"  @@@@@@@@@@@@@@$$$$$$$$--------$$$$$-$$-$$$$@@@@@@@####@@@@@@  ",
"  @@@@@@@@@@@@@@@@@@@@$$;;------$$$$$-$$-$$$$@@@@@@@@@@@@@@@@@  ",
"  @@@@@@@@@@@@@@@@@@@@$$;;;;;;;;$$$$$-$$-$$$$@@@@@@@@@@@@@@@@@  ",
"  ..@@@@@@@@@@@@@@@@@@$$;;;;;;;;$$$$$-$$-$$$$@@@@@@@@@@@@@@@@@  ",
"  ..@@@@@@@@@@@@@@@@@@$$$$;;;;;;$$$$$;$$;$$$$@@@@@@@@@@@@@@@@@  ",
"  ....@@@@@@@@@@@@@@@@@@$$;;;;;;;;$$$;$$;;$$$@@@++@@@@@@@@@@++  ",
"  ....@@@@@@@@@@@@@@@@@@$$;;;;;;;;$$$;$$;;$$$@@@++@@@@@@@@@@++  ",
"  ++....@@@@@@@@@@@@@@@@$$;;;;;;;;$$$;$$;;$$$@@@++++@@@@@@@@++  ",
"  ++....@@@@@@@@@@@@@@@@@@$$$$$$$$;;;;;;;$@@@@@@++++@@@@@@@@++  ",
"  ++++++..@@@@@@@@@@@@@@$$***$$$$$$$$$$$$$$$$$$$$$$@@@@@@@@@..  ",
"  ++++++..@@@@@@@@@@@@$$**------$$$$$$$$$==========$$@@@@@@@..  ",
"  ++++++@@@@@@@@@@@@@@$$**------$$$$$$$$$==========$$@@@@@++..  ",
"  ++++++@@@@@@@@@@@@@@$$-----;$$>>>>>>>>$$,,,,,,,==$$@@@@@++..  ",
"  ++++@@@@@@@@@@@@@@$$$$$$;;;$$$>>>>>%>>$$,,,,,,,==$$@@@@@++..  ",
"  ++++@@@@@@@@@@@@@@$$$$$$;;;$$$>>>>>%>>$$,,,,,,,==$$@@@@@++..  ",
"  @@@@@@@@@@@@@@@@@@$$$$$$;;;$$$>>>>>%>>$$,,,,,,,==$$@@@@@##..  ",
"  @@@@@@@@@@@@@@@@@@$$**--$$$$$$''%%%%%%'$)))),,,**$$@@@@@##..  ",
"  @@@@@@@@@@@@@@@@@$**----$$$$$$=='''%''=$$$$$)))**$$@@@@@@@..  ",
"  @@@@@@@@@@@@@@@@@$**----$$$$$$=='''%''=$$$$$)))**$$@@@@@@@..  ",
"  ++++++@@@@@@@@@@@$$$$$$$$$$$;;$$======$$***-$$)**$$@@@@@@@++  ",
"  ++++++@@@@@@@@@@@$------@@@$;;$$)))!))$$----$$)**$$@@@@@@@++  ",
"  ++######@@@@@@@@@$------@@@$;;$$)))!))$$----$$)**$$@@@@@@@##  ",
"  ++######@@@@@@@@@$$$$$$$@@@$;;$$$$$$$$$$$$$$$$)**$$@@@@@@@##  ",
"  @@@@@@@@@@@@@@@@@$$$$$$$@@@$;;$$$$$$$$$$$$$$$$)**$$@@@@@@@@@  ",
"  @@@@@@@@@@@@@@@$$$;;;;;;@@@$$$>>>>>>>>>$))))))*$$@@@@@@@@@@@  ",
"  @@@@@@@@@@@@@@$**$;;;;;;$$$$$$>>''''>>>$~~~~~~*$$@@@@@@@@@@@  ",
"  @@@@@@@@@@@@@@$**$;;;;;;$$$$$$>>''''>>>$~~~~~~*$$@@@@@@@@@@@  ",
"  @@@@@@@@++@$$$=**$$$$$$$----$$''===='''$~~~~**$@@@@@@@@@@@@@  ",
"  @@@@@@@@++@$$$=**$$$$$$$----$$''===='''$~~~~**$@@@@@@@@@@@@@  ",
"  @@@@@@++++$===***$@@@@@@$$$$$$==$$$$===$~~~~**$@@@@@@@@@@@@@  ",
"  @@@@@@+++$=****$$@@@@@$$----$$$$****$$$$****$$@@@@@@@@@@@@@@  ",
"  @@@@@@@@+$=****$$@@@@@$$----$$$$****$$$$****$$@@@@@@@@@@@@@@  ",
"  @@@@@@@$$*****$@@@@@@@$$;;;;$$@@$$$*---$$$$$@@@@@@@@@@@@@@@@  ",
"  @@@@@@$****$$$++@@@@$$$$;;;$@@@@$$$;;;;$@@@@@@@@@@@@@@@@@@++  ",
"  @@@@@@$****$$$++@@@@$$$$;;;$@@@@$$$;;;;$@@@@@@@@@@@@@@@@@@++  ",
"  ++@@@@$****$$$++@@@@$$$$;;;$@@@@$$$;;;;$@@@@@@@@@@@@@@@@@@++  ",
"  ++@$$$****$@++++@@@@$$;;;;;$@@@@$$$$$$$$@@@@@@@@@@@@@@@@@@++  ",
"  ++@$$$$$$$@@++++@@@@$$$$$$$@@@@@@@@@@@@@++@@@@@@@@@@@@@@++++  ",
"  ++@$$$$$$$@@++++@@@@$$$$$$$@@@@@@@@@@@@@++@@@@@@@@@@@@@@++++  ",
"  ..++@@@@@@@@@@@@@@@@@@@@@@@@@@@@@@@@@@##++@@@@@@@@@@@@++....  ",
"  ..++@@@@@@@@@@@@@@@@@@@@@@@@@@@@@@@@@@##++@@@@@@@@@@@@++....  ",
"  ....++++++++@@@@++@@@@@@@@@@@@++++++++....++++@@@@@@++++....  ",
"  ....++++++++@@@@++@@@@@@@@@@@@++++++++....++++@@@@@@++++....  ",
"                                                                ",
"                                                                "};
