/* XPM */
static char * portal_xpm[] = {
"64 64 13 1",
" 	c #06050D",
".	c #333941",
"+	c #4A5462",
"@	c #6D758D",
"#	c #F0A070",
"$	c #C87858",
"%	c #A05848",
"&	c #9BABB2",
"*	c #893A34",
"=	c #201820",
"-	c #C7DCD0",
";	c #FFFFFF",
">	c #1F242B",
"                                                                ",
"                                                                ",
"  ....++++....++++++@@@@@@@   ##$$%%%  @@@++++..  ++@@@@++....  ",
"  ....++++....++++++@@@@@@@   ##$$%%%  @@@++++..  ++@@@@++....  ",
"  ..&&&&&&&&&&@@@@@@&&&&&&&   %%  ***  @@@@@@@@@..@@@@@@@@@@++  ",
"  ..&&&&&&&&&&@@@@@@&&&&&&&   %%  ***  @@@@@@@@@..@@@@@@@@@@++  ",
"  ++&&@@@@@@@@@@@@@@@@@@@@@   %%*****  @@@@@@@@@..++@@@@@@@@++  ",
"  ++&&@@@@@@@@@@@@@@@@@@@@@   %%*****  @@@@@@@@@..++@@@@@@@@++  ",
"  ++&&@@@@@@@@@@@@@@@@@@@@@@@@  **   @@@@@@@@@@@..++@@@@@@++..  ",
"  ++&&@@@@@@@@@@@@@@@@@@@@@@@@  **   @@@@@@@@@@@..++@@@@@@++..  ",
"  ++&&@@@@@@@@@@@@@@@@@@@@@@@@  %%   @@@@@@@@@@@@@..@@@@++..    ",
"  ++&&@@@@@@@@@@@@@@@@@@@@@@@@  %%   @@@@@@@@@@@@@..@@@@++..    ",
"  ++@@@@@@@@@@@@@@@@@@@@@@@@@@  **   @@@@@@@@@@@@@..++@@..  @@  ",
"  ++@@@@@@@@@@@@@@@@@@@@@@@@@@  **   @@@@@@@@@@@@@..++@@..  @@  ",
"  ++@@@@@@@@@@@@@@@@@@@@@@@@@@  %%   @@@@@@@@@@@@@&&..++..&&++  ",
"  ++@@@@@@@@@@@@@@@@@@@@@@@@@@  %%   @@@@@@@@@@@@@&&..++..&&++  ",
"  @@@@@@@@@@@@@@@@@@@@@@@@@@@@  %%   @@@@@@@@@@@@@&&....&&@@++  ",
"  @@@@@@@@@@@@@@@@@@          *******         @@@@&&....&&@@++  ",
"  @@@@@@@@@@@@@@@@@@          *******         @@@@@@&&&&@@@@@@  ",
"  @@@@@@@@@@@@@@@@@@   =====================  @@@@@@&&&&@@@@@@  ",
"  @@@@@@@@@@@@@@@@@@   =====================  @@@@@@@@@@@@@@@@  ",
"  @@@@@@@@@@@@@@@@@@          @@&&@@@         @@@@@@@@@@@@@@@@  ",
"  ..@@@@@@@@@@@@@@@@          @@&&@@@         @@@@@@@@@@@@@@@@  ",
"  ..@@@@@@@@@@@@@@@@@@@@@@@   &&--@@@  @@@@@@@@@@@@@@@@@@@@@@@  ",
"  ....@@@@@@@@@@@@@@@@@@@@@   &&--@@@  @@@@@@@@@++@@@@@@@@@@++  ",
"  ....@@@@@@@@@@@@@@@@@@@@@   &&--&&&  @@@@@@@@@++@@@@@@@@@@++  ",
"  ++....@@@@@@@@@@@@@@@@@@@   &&--&&&  @@@@@@@@@++++@@@@@@@@++  ",
"  ++....@@@@@@@@@@@@@@@@@@@   &&;;---  @@@@@@@@@++++@@@@@@@@++  ",
"  ++++++..@@@@@@@@@@@@@@@@@   &&;;---  @@@@@++@@@@@@@@@@@@@@..  ",
"  ++++++..@@@@@@@@@@@@@@@@@   &&;;---  @@@@@++@@@@@@@@@@@@@@..  ",
"  ++++++@@@@@@@@@@@@@@@@@@@   &&;;---  @@@@@++@@@@@@@@@@@@++..  ",
"  ++++++@@@@@@@@@@@@@@@@@@@   &&;;---  @@@@@++@@@@@@@@@@@@++..  ",
"  ++++@@@@@@@@@@@@@@@@@@@@@   &&;;---  @@@++@@@@@@@@@@@@@@++..  ",
"  ++++@@@@@@@@@@@@@@@@@@@@@   &&--&&&  @@@++@@@@@@@@@@@@@@++..  ",
"  @@@@@@@@@@@@@@@@@@@@@@@@@   &&--&&&  @@@++@@@@@@++@@@@@@&&..  ",
"  @@@@@@@@@@@@@@@@@@@@@@@@@   &&;;---  @@@++@@@@@@++@@@@@@&&..  ",
"  @@@@@@@@@@@@@@@@@@@@@@@@@   &&;;---  @@@@@@@@@++..@@@@@@@@..  ",
"  @@@@@@@@@@@@@@@@@@@@@@@@@   &&--&&&  @@@@@@@@@++..@@@@@@@@..  ",
"  ++++++@@@@@@@@@@@@@@@@@@@   &&--&&&  @@@@@++....++@@@@@@@@++  ",
"  ++++++@@@@@@@@@@@@@@@@@@@   &&;;---  @@@@@++....++@@@@@@@@++  ",
"  ++&&&&&&@@@@@@@@@@@@@@@@@   &&;;---  @@@......++@@@@@@@@@@&&  ",
"  ++&&&&&&@@@@@@@@@@@@@@@@@   &&;;---  @@@......++@@@@@@@@@@&&  ",
"  @@@@@@@@@@@@@@@@@@@@@@@@@   &&;;---  @@@....++++@@@@@@@@@@@@  ",
"  @@@@@@@@@@@@@@@@@@@@@@@@@   &&;;---  @@@....++++@@@@@@@@@@@@  ",
"  @@@@@@@@@@@@@@@@@@@@@@@@@   &&;;---  @@@..++++++@@@@@@@@@@@@  ",
"  @@@@@@@@@@@@@@@@@@@@@@@@@   &&;;---  @@@..++++++@@@@@@@@@@@@  ",
"  @@@@@@@@++@@@@@@@@@@@@@@@   &&;;---  @@@++++@@@@@@@@@@@@@@@@  ",
"  @@@@@@@@++@@@@@@@@@@@@@@@   &&--&&&  @@@++++@@@@@@@@@@@@@@@@  ",
"  @@@@@@++++@@@@@@@@@@@@@@@   &&--&&&  @@@++@@@@@@@@@@@@@@@@@@  ",
"  @@@@@@++++@@@@@@@@@@@@@@@   &&--&&&  @@@++@@@@@@@@@@@@@@@@@@  ",
"  @@@@@@@@++@@@@@@@@@@@@@@@   &&--@@@  @@@@@@@@@@@@@@@@@@@@@@@  ",
"  @@@@@@@@++@@@@@@@@@@@@@@@   &&--@@@  @@@@@@@@@@@@@@@@@@@@@@@  ",
"  @@@@@@@@@@@@@@++@@@@@                     @@@@@@@@@@@@@@@@++  ",
"  @@@@@@@@@@@@@@++@@@@@                     @@@@@@@@@@@@@@@@++  ",
"  ++@@@@@@@@@@++++@@   >>>>>>>@@++>>>..>>         @@@@@@@@@@++  ",
"  ++@@@@@@@@@@++++@@   >>>>>>>@@++>>>..>>         @@@@@@@@@@++  ",
"  ++@@@@@@@@@@++++@@   @@++...++@@...>>+++++@@@@@@  @@@@@@++++  ",
"  ++@@@@@@@@@@++++@@   @@++...++@@...>>+++++@@@@@@  @@@@@@++++  ",
"  ..++@@@@@@@@@@@@  +++++.....>>..+++@@..+++>>@@@@  @@@@++....  ",
"  ..++@@@@@@@@@@@@  +++++.....>>..+++@@..+++>>@@@@  @@@@++....  ",
"  ....++++++++    .........>>>>>..+++++..>>>..>>>>  @@++++....  ",
"  ....++++++++    .........>>>>>..+++++..>>>..>>>>  @@++++....  ",
"                  >>>>>>>>>>>>>>>>>>>>>>>>>>>>>>>>>>            ",
"                  >>>>>>>>>>>>>>>>>>>>>>>>>>>>>>>>>>            "};
